<svg height="400" id="svg" version="1.1"
     viewBox="0, 0, 400,400" width="400" xmlns="http://www.w3.org/2000/svg" xmlns:xlink="http://www.w3.org/1999/xlink">
    <g id="svgg">
        <path d="M132.800 42.569 C 132.250 42.864,131.170 43.240,130.400 43.404 C 129.630 43.568,128.645 43.949,128.211 44.251 C 127.777 44.553,127.187 44.800,126.899 44.800 C 126.419 44.800,117.784 48.751,116.400 49.603 C 116.070 49.807,114.720 50.538,113.400 51.228 C 111.125 52.418,108.146 54.328,103.200 57.767 C 100.350 59.749,98.064 61.945,97.773 62.979 C 97.646 63.431,97.071 64.941,96.496 66.335 C 95.590 68.532,95.521 68.984,95.978 69.735 C 96.636 70.816,118.235 99.475,120.445 102.200 C 129.906 113.867,133.092 117.310,137.800 120.961 C 141.042 123.474,142.236 124.239,146.662 126.641 L 149.124 127.977 150.862 127.045 C 151.818 126.532,153.230 125.732,154.000 125.266 C 154.770 124.801,156.120 124.017,157.000 123.524 C 157.880 123.031,158.960 122.406,159.400 122.135 C 159.840 121.864,160.936 121.266,161.835 120.808 C 165.677 118.847,166.818 110.453,164.446 101.595 C 162.405 93.976,160.867 88.908,160.158 87.468 C 159.851 86.845,159.594 86.035,159.586 85.668 C 159.579 85.300,159.225 84.280,158.800 83.400 C 158.375 82.520,158.021 81.624,158.014 81.409 C 157.999 80.992,155.526 74.610,154.600 72.600 C 154.296 71.940,153.656 70.410,153.177 69.200 C 152.698 67.990,151.977 66.280,151.573 65.400 C 151.170 64.520,150.454 62.900,149.982 61.800 C 149.509 60.700,148.880 59.260,148.583 58.600 C 148.285 57.940,147.558 56.320,146.966 55.000 C 146.374 53.680,145.207 51.158,144.372 49.396 C 143.536 47.634,142.665 45.697,142.435 45.091 C 142.204 44.486,141.517 43.787,140.908 43.539 C 140.299 43.291,139.233 42.843,138.540 42.544 C 136.947 41.857,134.103 41.869,132.800 42.569 M177.343 121.325 C 172.378 125.874,179.112 133.213,184.174 128.769 C 186.600 126.639,186.588 123.626,184.144 121.321 C 182.125 119.417,179.423 119.418,177.343 121.325 M191.600 133.080 C 175.236 135.877,163.147 141.811,152.689 152.181 C 149.175 155.666,142.800 163.713,142.800 164.664 C 142.800 164.814,142.551 165.221,142.246 165.569 C 141.941 165.916,141.058 167.460,140.284 169.000 C 123.952 201.491,134.981 239.820,165.921 258.094 C 195.875 275.786,234.819 267.446,254.935 239.030 C 277.818 206.705,267.991 161.481,233.800 141.763 C 221.644 134.753,203.571 131.034,191.600 133.080 M250.646 140.835 C 247.220 143.530,248.117 148.821,252.190 149.946 C 257.447 151.398,261.062 144.995,257.057 141.325 C 255.254 139.673,252.401 139.455,250.646 140.835 M210.400 142.780 C 214.794 143.591,218.444 144.522,219.800 145.178 C 220.240 145.390,221.767 146.042,223.194 146.627 C 239.923 153.479,254.230 171.158,257.163 188.600 C 257.385 189.920,257.753 192.080,257.981 193.400 C 258.628 197.146,258.472 203.750,257.616 208.910 C 249.694 256.646,192.032 275.021,158.363 240.540 C 153.237 235.291,146.000 224.308,146.000 221.780 C 146.000 221.637,145.731 220.954,145.403 220.260 C 144.246 217.820,143.105 212.988,141.989 205.800 C 140.871 198.606,142.281 188.102,145.506 179.600 C 148.631 171.361,152.426 165.553,158.987 158.973 C 163.247 154.701,164.948 153.361,170.800 149.671 C 175.516 146.696,183.768 143.663,189.600 142.759 C 191.250 142.503,193.410 142.149,194.400 141.972 C 197.145 141.481,205.699 141.913,210.400 142.780 M195.200 164.244 C 193.369 164.467,187.239 165.985,186.431 166.415 C 186.084 166.600,184.720 167.236,183.400 167.830 C 156.459 179.948,155.972 219.749,182.600 233.283 C 210.920 247.676,242.801 221.908,234.666 191.200 C 230.626 175.953,216.678 164.797,200.943 164.229 C 198.554 164.143,195.970 164.150,195.200 164.244 M359.200 174.050 C 358.650 174.269,356.130 174.604,353.600 174.795 C 351.070 174.985,348.374 175.334,347.609 175.569 C 346.844 175.804,344.774 176.100,343.009 176.227 C 341.244 176.353,338.540 176.708,337.000 177.015 C 335.460 177.322,332.670 177.759,330.800 177.986 C 327.142 178.431,323.623 178.972,319.800 179.677 C 318.480 179.920,316.050 180.351,314.400 180.634 C 303.322 182.534,291.926 187.028,287.273 191.332 C 286.031 192.481,286.099 207.471,287.355 209.387 C 289.562 212.755,296.112 216.219,304.000 218.189 C 305.210 218.492,306.965 218.933,307.900 219.169 C 312.127 220.240,313.194 220.453,316.197 220.828 C 317.955 221.047,320.283 221.491,321.369 221.813 C 322.456 222.136,324.220 222.400,325.289 222.400 C 326.359 222.400,328.531 222.656,330.117 222.968 C 331.703 223.280,334.890 223.658,337.200 223.807 C 339.510 223.956,342.721 224.330,344.335 224.639 C 345.950 224.947,348.740 225.203,350.535 225.207 C 353.809 225.214,359.373 225.696,362.109 226.209 C 365.143 226.779,369.587 220.996,369.606 216.454 C 369.610 215.654,369.873 213.920,370.192 212.600 C 371.033 209.118,371.039 187.526,370.200 184.400 C 369.875 183.190,369.607 181.611,369.605 180.891 C 369.601 179.940,369.182 179.119,368.073 177.891 C 367.233 176.961,366.141 175.615,365.646 174.900 C 364.673 173.495,361.605 173.090,359.200 174.050 M125.347 176.367 C 122.325 178.210,121.805 181.778,124.208 184.181 C 126.604 186.577,129.290 186.583,131.602 184.197 C 135.635 180.037,130.294 173.351,125.347 176.367 M272.200 214.272 C 270.872 214.611,268.825 216.859,268.560 218.272 C 267.459 224.143,275.464 226.891,278.208 221.585 C 280.154 217.822,276.366 213.211,272.200 214.272 M144.600 248.784 C 142.753 249.553,141.400 251.558,141.400 253.526 C 141.400 258.815,148.079 260.769,150.816 256.281 C 153.343 252.137,149.032 246.939,144.600 248.784 M218.257 269.135 C 215.660 270.902,214.891 273.833,216.384 276.281 C 218.440 279.652,222.974 279.582,225.241 276.143 C 227.950 272.035,222.312 266.377,218.257 269.135 M143.938 273.519 C 133.581 279.281,120.240 293.658,100.851 319.951 C 94.264 328.883,94.582 328.304,95.312 330.053 C 95.622 330.794,95.999 332.068,96.152 332.884 C 96.559 335.057,101.892 339.805,111.435 346.489 C 113.348 347.829,123.055 353.600,123.396 353.600 C 123.482 353.600,125.082 354.320,126.952 355.200 C 130.564 356.900,131.953 357.085,137.074 356.550 L 139.465 356.300 140.979 353.050 C 141.811 351.263,143.073 348.540,143.782 347.000 C 144.491 345.460,145.563 343.151,146.163 341.869 C 146.764 340.587,147.585 338.767,147.989 337.825 C 148.637 336.315,149.275 334.880,151.383 330.200 C 152.123 328.556,153.434 325.582,154.425 323.300 C 154.878 322.255,155.498 320.860,155.801 320.200 C 156.104 319.540,156.739 318.010,157.212 316.800 C 158.260 314.121,159.498 311.051,160.245 309.286 C 160.550 308.564,160.806 307.754,160.814 307.486 C 160.821 307.219,161.175 306.280,161.600 305.400 C 162.025 304.520,162.379 303.401,162.386 302.914 C 162.394 302.426,162.654 301.436,162.964 300.714 C 165.296 295.282,166.169 281.825,164.300 280.117 C 163.564 279.445,159.985 277.218,156.073 275.000 C 155.685 274.780,154.459 274.015,153.349 273.300 C 150.413 271.409,147.611 271.474,143.938 273.519 M332.862 349.240 C 332.126 349.909,331.594 350.527,331.679 350.612 C 331.764 350.698,332.534 350.145,333.390 349.384 C 334.245 348.623,334.778 348.005,334.573 348.012 C 334.368 348.018,333.598 348.571,332.862 349.240 M80.962 358.742 C 81.809 359.695,82.000 359.782,82.000 359.214 C 82.000 359.002,81.595 358.616,81.100 358.356 C 80.205 357.886,80.204 357.888,80.962 358.742 M261.200 389.000 C 260.922 389.335,260.879 389.600,261.102 389.600 C 261.322 389.600,261.726 389.330,262.000 389.000 C 262.278 388.665,262.321 388.400,262.098 388.400 C 261.878 388.400,261.474 388.670,261.200 389.000 "
              fill="#111"
              fill-rule="evenodd" id="path0" stroke="none"></path>
        <path d="M179.252 2.065 C 179.653 2.336,179.531 2.419,178.800 2.374 C 177.016 2.263,176.533 2.370,177.126 2.746 C 177.419 2.932,176.018 3.010,173.959 2.922 C 171.928 2.836,169.982 2.888,169.633 3.038 C 169.285 3.188,168.668 3.347,168.263 3.391 C 167.858 3.436,167.374 3.718,167.188 4.019 C 166.947 4.409,165.986 4.555,163.829 4.527 C 161.797 4.502,160.894 4.628,161.070 4.913 C 161.237 5.183,161.072 5.236,160.615 5.061 C 160.221 4.910,159.696 4.947,159.449 5.143 C 158.980 5.515,157.106 5.932,154.912 6.152 C 154.204 6.224,153.351 6.509,153.016 6.787 C 152.681 7.064,151.499 7.332,150.389 7.381 C 149.278 7.430,148.160 7.680,147.905 7.935 C 147.649 8.191,147.037 8.400,146.544 8.400 C 146.051 8.400,145.531 8.587,145.390 8.816 C 145.248 9.045,144.788 9.123,144.366 8.989 C 143.894 8.839,143.600 8.935,143.600 9.240 C 143.600 9.511,143.489 9.622,143.352 9.486 C 143.216 9.350,142.867 9.476,142.576 9.767 C 142.260 10.083,141.464 10.231,140.592 10.135 C 139.542 10.019,139.218 10.106,139.430 10.449 C 139.614 10.746,139.552 10.818,139.267 10.641 C 139.016 10.486,138.437 10.707,137.981 11.132 C 137.388 11.684,136.765 11.854,135.804 11.724 C 134.852 11.596,134.243 11.757,133.724 12.276 C 133.321 12.679,132.678 12.949,132.295 12.875 C 131.913 12.802,131.600 12.929,131.600 13.158 C 131.600 13.387,131.328 13.470,130.995 13.343 C 130.350 13.095,129.091 13.900,129.383 14.373 C 129.479 14.528,129.027 14.577,128.379 14.482 C 127.676 14.379,127.200 14.489,127.200 14.755 C 127.200 15.000,126.975 15.155,126.700 15.100 C 126.425 15.045,126.249 15.238,126.310 15.530 C 126.370 15.821,126.227 15.941,125.992 15.795 C 125.757 15.650,125.305 15.747,124.988 16.010 C 124.670 16.274,124.138 16.385,123.805 16.257 C 123.472 16.130,123.200 16.199,123.200 16.413 C 123.200 16.626,122.975 16.755,122.700 16.700 C 122.425 16.645,122.239 16.807,122.286 17.059 C 122.337 17.326,122.056 17.435,121.615 17.320 C 120.813 17.110,118.400 18.321,118.400 18.933 C 118.400 19.131,118.047 19.201,117.615 19.088 C 116.689 18.846,115.660 19.797,116.483 20.134 C 116.767 20.251,116.387 20.240,115.638 20.110 C 114.742 19.956,114.364 20.018,114.533 20.292 C 114.678 20.525,114.489 20.685,114.105 20.655 C 113.728 20.625,113.413 20.870,113.406 21.200 C 113.397 21.605,113.036 21.774,112.296 21.719 C 111.693 21.674,111.200 21.820,111.200 22.042 C 111.200 22.265,111.019 22.335,110.797 22.198 C 110.576 22.061,110.291 22.219,110.164 22.549 C 110.037 22.879,109.679 23.052,109.367 22.932 C 109.008 22.794,108.788 22.987,108.768 23.457 C 108.749 23.925,108.659 24.005,108.526 23.672 C 108.370 23.283,108.169 23.352,107.760 23.935 C 107.430 24.407,106.912 24.650,106.479 24.537 C 106.023 24.417,105.480 24.710,105.020 25.321 C 104.585 25.900,104.011 26.223,103.604 26.117 C 103.227 26.018,102.665 26.177,102.354 26.469 C 102.042 26.761,101.084 27.360,100.223 27.800 C 99.363 28.240,98.466 28.780,98.229 29.000 C 97.993 29.220,97.115 29.717,96.279 30.104 C 95.442 30.491,94.855 30.965,94.974 31.158 C 95.094 31.351,94.889 31.755,94.519 32.055 C 94.056 32.430,93.940 32.444,94.147 32.100 C 94.312 31.825,94.257 31.600,94.024 31.600 C 93.791 31.600,93.600 31.780,93.600 32.000 C 93.600 32.220,93.465 32.363,93.300 32.318 C 92.930 32.216,90.400 33.539,90.400 33.834 C 90.400 33.951,90.608 33.919,90.862 33.762 C 91.148 33.585,91.215 33.652,91.038 33.938 C 90.881 34.192,90.482 34.400,90.150 34.400 C 88.799 34.400,87.912 35.209,88.474 35.928 C 88.929 36.510,88.918 36.536,88.389 36.125 C 87.733 35.615,84.090 37.673,84.300 38.436 C 84.355 38.636,84.265 38.779,84.100 38.753 C 83.298 38.626,82.769 38.911,81.344 40.237 C 80.495 41.027,80.053 41.539,80.362 41.375 C 80.738 41.175,80.827 41.232,80.632 41.549 C 80.471 41.809,80.128 41.979,79.870 41.927 C 79.155 41.783,77.546 42.789,77.810 43.215 C 77.937 43.422,77.763 43.484,77.423 43.354 C 77.021 43.199,76.693 43.421,76.483 43.988 C 76.305 44.467,76.034 44.846,75.880 44.830 C 74.954 44.732,74.740 44.868,74.953 45.421 C 75.089 45.777,75.022 45.937,74.795 45.797 C 74.578 45.663,74.400 45.754,74.400 46.000 C 74.400 46.246,74.240 46.349,74.045 46.228 C 73.850 46.108,73.593 46.385,73.472 46.845 C 73.352 47.304,73.062 47.562,72.827 47.417 C 72.592 47.272,72.400 47.373,72.400 47.643 C 72.400 47.913,72.282 48.015,72.137 47.870 C 71.681 47.415,65.906 52.324,66.247 52.876 C 66.357 53.054,66.194 53.200,65.886 53.200 C 65.150 53.200,63.912 54.578,64.299 54.966 C 64.465 55.131,64.405 55.207,64.167 55.133 C 63.484 54.923,60.328 57.955,60.649 58.513 C 60.802 58.781,60.794 58.880,60.631 58.733 C 60.283 58.421,58.548 60.044,58.710 60.530 C 58.770 60.711,58.623 60.738,58.383 60.590 C 57.911 60.297,56.996 61.267,56.399 62.692 C 56.159 63.266,55.807 63.501,55.413 63.350 C 54.855 63.136,54.601 63.598,54.763 64.530 C 54.794 64.711,54.662 64.762,54.470 64.643 C 54.038 64.376,52.164 66.449,52.339 67.000 C 52.409 67.220,52.335 67.268,52.173 67.107 C 51.801 66.734,49.913 68.736,50.200 69.200 C 50.317 69.390,50.031 69.813,49.563 70.141 C 49.014 70.525,48.827 70.924,49.033 71.268 C 49.255 71.637,49.122 71.616,48.600 71.200 C 48.161 70.850,47.972 70.809,48.147 71.100 C 48.319 71.386,48.247 71.600,47.981 71.600 C 47.716 71.600,47.621 71.879,47.762 72.245 C 47.929 72.681,47.835 72.822,47.469 72.682 C 47.151 72.560,46.623 72.995,46.188 73.737 C 45.780 74.432,44.896 75.556,44.223 76.236 C 42.675 77.800,41.370 79.636,41.500 80.068 C 41.555 80.250,41.330 80.400,41.000 80.400 C 40.409 80.400,40.243 80.820,40.369 82.000 C 40.419 82.468,40.356 82.486,40.081 82.081 C 39.803 81.670,39.612 81.707,39.165 82.258 C 38.810 82.695,38.784 82.843,39.095 82.656 C 39.430 82.455,39.515 82.556,39.357 82.967 C 39.229 83.301,38.928 83.535,38.689 83.487 C 38.449 83.439,37.989 83.940,37.666 84.600 C 37.343 85.260,36.829 85.948,36.522 86.130 C 36.206 86.317,36.065 86.774,36.196 87.188 C 36.364 87.716,36.232 87.900,35.714 87.858 C 35.262 87.821,35.020 88.056,35.055 88.496 C 35.086 88.886,34.926 89.078,34.692 88.933 C 34.428 88.770,34.357 88.994,34.500 89.538 C 34.624 90.013,34.561 90.299,34.360 90.175 C 34.159 90.051,33.869 90.276,33.717 90.675 C 33.564 91.074,33.089 91.684,32.661 92.031 C 32.233 92.378,31.864 93.188,31.841 93.831 C 31.811 94.678,31.619 94.970,31.146 94.893 C 30.452 94.779,29.839 95.817,30.228 96.446 C 30.356 96.652,30.221 96.770,29.930 96.710 C 29.637 96.649,29.425 96.911,29.455 97.296 C 29.485 97.678,29.350 97.893,29.155 97.772 C 28.960 97.651,28.800 97.929,28.800 98.389 C 28.800 98.849,28.531 99.328,28.202 99.454 C 27.874 99.581,27.704 99.845,27.826 100.042 C 27.948 100.239,27.836 100.400,27.577 100.400 C 27.304 100.400,27.194 100.735,27.316 101.201 C 27.431 101.641,27.383 101.913,27.208 101.805 C 26.816 101.562,25.797 102.730,26.119 103.053 C 26.248 103.181,25.907 103.762,25.362 104.343 C 24.812 104.930,24.450 105.712,24.548 106.101 C 24.646 106.486,24.583 106.713,24.408 106.605 C 24.233 106.497,23.868 106.677,23.596 107.004 C 23.201 107.480,23.208 107.600,23.627 107.600 C 23.955 107.600,23.861 107.837,23.376 108.230 C 22.949 108.576,22.870 108.740,23.200 108.595 C 23.530 108.450,23.369 108.681,22.842 109.110 C 22.311 109.543,22.010 110.093,22.166 110.345 C 22.321 110.595,22.257 110.800,22.024 110.800 C 21.791 110.800,21.600 111.057,21.600 111.371 C 21.600 111.686,21.319 112.224,20.974 112.568 C 20.630 112.912,20.461 113.375,20.598 113.597 C 20.735 113.819,20.673 114.000,20.461 114.000 C 20.249 114.000,20.169 114.360,20.284 114.800 C 20.429 115.353,20.296 115.600,19.854 115.600 C 19.488 115.600,19.103 116.069,18.952 116.700 C 18.808 117.305,18.490 118.060,18.245 118.377 C 17.892 118.834,17.925 118.890,18.400 118.647 C 18.730 118.479,18.667 118.612,18.260 118.944 C 17.829 119.295,17.646 119.751,17.822 120.035 C 18.027 120.367,17.957 120.420,17.604 120.202 C 17.213 119.961,17.134 120.140,17.284 120.928 C 17.394 121.504,17.351 121.893,17.188 121.792 C 16.786 121.544,15.938 122.604,16.271 122.937 C 16.563 123.229,15.701 125.083,14.864 125.965 C 14.569 126.275,14.400 127.018,14.488 127.616 C 14.597 128.362,14.415 128.848,13.908 129.165 C 13.502 129.418,13.289 129.820,13.436 130.058 C 13.582 130.295,13.495 130.618,13.241 130.775 C 12.987 130.932,12.739 131.614,12.689 132.291 C 12.640 132.968,12.465 133.439,12.300 133.337 C 12.135 133.236,11.982 133.298,11.960 133.476 C 11.939 133.654,11.875 134.250,11.818 134.800 C 11.762 135.350,11.308 136.481,10.811 137.313 C 10.164 138.394,9.974 139.171,10.147 140.033 C 10.279 140.697,10.237 141.146,10.052 141.032 C 9.591 140.747,8.954 142.362,9.000 143.700 C 9.020 144.305,8.894 144.800,8.719 144.800 C 8.543 144.800,8.400 145.124,8.400 145.520 C 8.400 145.916,8.191 146.449,7.935 146.705 C 7.680 146.960,7.431 148.049,7.384 149.125 C 7.336 150.200,6.985 151.557,6.602 152.141 C 6.197 152.759,6.003 153.568,6.137 154.080 C 6.263 154.563,6.173 155.191,5.937 155.476 C 5.701 155.760,5.586 156.523,5.681 157.172 C 5.784 157.874,5.682 158.321,5.427 158.276 C 5.192 158.234,5.013 158.596,5.030 159.080 C 5.046 159.564,4.934 159.883,4.782 159.789 C 4.629 159.695,4.482 161.009,4.454 162.709 C 4.383 166.995,4.353 167.157,3.687 166.901 C 3.248 166.733,3.174 166.887,3.381 167.539 C 3.542 168.049,3.482 168.400,3.232 168.400 C 2.961 168.400,2.844 169.683,2.905 172.000 C 2.957 173.980,2.854 175.600,2.676 175.600 C 2.498 175.600,2.464 175.780,2.600 176.000 C 2.736 176.220,2.637 176.400,2.380 176.400 C 2.076 176.400,2.002 176.782,2.169 177.500 C 2.344 178.253,2.306 178.422,2.048 178.035 C 1.811 177.678,1.676 185.706,1.682 199.741 C 1.692 219.921,1.754 222.048,2.346 222.394 C 2.778 222.646,2.823 222.780,2.476 222.788 C 2.188 222.795,2.066 222.983,2.204 223.207 C 2.342 223.430,2.578 223.537,2.728 223.444 C 2.877 223.351,2.956 224.923,2.903 226.938 C 2.822 229.981,2.920 230.685,3.479 231.100 C 3.852 231.376,3.940 231.600,3.676 231.600 C 2.986 231.600,3.091 232.336,3.935 233.408 C 4.516 234.147,4.645 234.897,4.547 236.988 C 4.480 238.442,4.575 239.539,4.759 239.426 C 5.121 239.202,6.038 243.514,6.007 245.294 C 5.997 245.896,6.318 246.718,6.722 247.122 C 7.211 247.611,7.418 248.314,7.342 249.228 C 7.190 251.074,7.896 252.815,8.677 252.515 C 9.199 252.315,9.207 252.406,8.740 253.194 C 8.315 253.911,8.306 254.143,8.699 254.285 C 9.003 254.395,9.107 254.830,8.965 255.396 C 8.722 256.363,9.426 258.155,9.927 257.845 C 10.085 257.747,10.145 258.396,10.060 259.286 C 9.943 260.521,10.027 260.831,10.415 260.591 C 10.757 260.380,10.825 260.437,10.622 260.765 C 10.447 261.048,10.606 261.462,11.000 261.750 C 11.427 262.063,11.680 262.796,11.680 263.724 C 11.680 264.536,11.823 265.200,11.997 265.200 C 12.172 265.200,12.422 265.479,12.553 265.821 C 12.709 266.229,12.622 266.356,12.295 266.191 C 12.023 266.053,12.077 266.179,12.415 266.470 C 12.753 266.762,12.964 267.315,12.885 267.700 C 12.806 268.085,12.929 268.400,13.158 268.400 C 13.387 268.400,13.471 268.670,13.345 269.000 C 13.199 269.380,13.350 269.600,13.757 269.600 C 14.328 269.600,14.662 270.849,14.436 272.134 C 14.404 272.318,14.786 273.128,15.285 273.934 C 15.784 274.740,16.141 275.625,16.079 275.900 C 16.016 276.175,16.163 276.400,16.406 276.400 C 16.649 276.400,16.744 276.568,16.617 276.772 C 16.491 276.977,16.570 277.258,16.793 277.396 C 17.017 277.534,17.200 277.997,17.200 278.424 C 17.200 278.851,17.391 279.200,17.624 279.200 C 17.857 279.200,17.928 279.393,17.782 279.630 C 17.636 279.866,17.914 280.483,18.400 281.000 C 18.886 281.517,19.159 282.142,19.007 282.388 C 18.697 282.890,19.527 284.092,19.988 283.808 C 20.151 283.707,20.194 284.096,20.084 284.672 C 19.947 285.388,20.027 285.630,20.337 285.439 C 20.633 285.256,20.705 285.383,20.543 285.803 C 20.373 286.248,20.570 286.519,21.178 286.678 C 21.893 286.865,22.014 287.107,21.818 287.954 C 21.636 288.740,21.677 288.851,21.982 288.400 C 22.347 287.861,22.573 288.104,22.447 288.900 C 22.421 289.065,22.574 289.200,22.787 289.200 C 23.001 289.200,23.068 289.479,22.937 289.819 C 22.800 290.177,23.017 290.679,23.450 291.006 C 24.037 291.451,24.069 291.580,23.600 291.600 C 23.112 291.621,23.131 291.725,23.700 292.157 C 24.085 292.449,24.400 292.994,24.400 293.368 C 24.400 293.741,24.578 293.937,24.795 293.803 C 25.013 293.668,25.095 293.809,24.977 294.115 C 24.860 294.421,25.042 294.903,25.382 295.185 C 25.722 295.467,26.000 295.957,26.000 296.273 C 26.000 296.589,26.168 296.744,26.372 296.617 C 26.826 296.337,27.283 297.015,27.406 298.154 C 27.558 299.556,27.582 299.604,28.082 299.500 C 28.538 299.405,28.632 299.614,28.750 300.982 C 28.778 301.302,29.232 301.995,29.759 302.523 C 30.287 303.051,30.793 303.824,30.883 304.241 C 30.974 304.659,31.255 304.957,31.509 304.905 C 31.786 304.848,31.870 305.075,31.718 305.470 C 31.533 305.952,31.609 306.042,32.000 305.800 C 32.392 305.558,32.467 305.648,32.281 306.134 C 32.140 306.500,32.187 306.800,32.386 306.800 C 32.584 306.800,32.874 307.202,33.029 307.692 C 33.448 309.010,34.870 310.800,35.499 310.800 C 35.800 310.800,35.936 310.980,35.800 311.200 C 35.664 311.420,35.754 311.600,36.000 311.600 C 36.246 311.600,36.336 311.780,36.200 312.000 C 36.064 312.220,36.143 312.400,36.376 312.400 C 36.609 312.400,36.755 312.617,36.700 312.882 C 36.645 313.147,36.853 313.372,37.162 313.382 C 37.471 313.392,37.776 313.755,37.840 314.189 C 37.903 314.623,38.233 315.181,38.571 315.429 C 38.910 315.676,39.099 315.968,38.990 316.077 C 38.881 316.186,39.277 316.798,39.870 317.437 C 40.462 318.077,40.914 318.645,40.874 318.700 C 40.562 319.123,40.913 319.642,41.387 319.460 C 41.710 319.336,42.098 319.435,42.249 319.679 C 42.415 319.948,42.341 320.011,42.062 319.838 C 41.396 319.426,41.494 319.867,42.271 320.775 C 42.641 321.206,43.118 321.450,43.333 321.318 C 43.548 321.185,43.599 321.278,43.447 321.524 C 43.295 321.770,43.492 322.308,43.885 322.719 C 44.278 323.131,45.315 324.477,46.190 325.711 C 47.064 326.945,47.852 327.882,47.940 327.793 C 48.029 327.705,48.501 328.210,48.990 328.916 C 49.479 329.622,50.131 330.140,50.439 330.067 C 50.748 329.993,50.884 330.049,50.742 330.191 C 50.381 330.552,52.396 332.630,52.948 332.467 C 53.197 332.393,53.271 332.462,53.114 332.619 C 52.701 333.033,53.527 334.400,54.190 334.400 C 54.500 334.400,54.881 334.608,55.038 334.862 C 55.229 335.171,55.138 335.218,54.762 335.003 C 54.453 334.827,54.646 335.114,55.191 335.641 C 55.735 336.169,56.238 336.510,56.307 336.400 C 56.376 336.290,56.803 336.785,57.255 337.500 C 57.708 338.215,58.252 338.800,58.463 338.800 C 58.674 338.800,58.744 338.967,58.618 339.171 C 58.492 339.375,58.751 339.657,59.194 339.798 C 59.637 339.939,60.000 340.333,60.000 340.674 C 60.000 341.097,60.254 341.227,60.801 341.084 C 61.267 340.962,61.500 341.038,61.359 341.267 C 61.036 341.789,62.804 343.645,63.320 343.326 C 63.549 343.184,63.600 343.276,63.438 343.538 C 63.269 343.812,63.407 344.000,63.776 344.000 C 64.119 344.000,64.355 344.225,64.300 344.500 C 64.245 344.775,64.399 344.964,64.643 344.919 C 64.886 344.875,65.325 345.286,65.618 345.833 C 65.911 346.380,66.369 346.744,66.637 346.641 C 67.226 346.415,68.522 347.745,68.113 348.154 C 67.954 348.312,68.136 348.323,68.517 348.177 C 69.038 347.976,69.149 348.069,68.964 348.550 C 68.794 348.993,69.038 349.310,69.759 349.585 C 70.332 349.802,70.800 350.285,70.800 350.657 C 70.800 351.029,70.895 351.239,71.011 351.123 C 71.127 351.007,71.982 351.608,72.911 352.459 C 73.840 353.310,74.825 353.920,75.100 353.815 C 75.375 353.711,75.600 353.810,75.600 354.036 C 75.600 354.262,75.778 354.337,75.995 354.203 C 76.230 354.058,76.284 354.237,76.127 354.645 C 75.949 355.111,76.015 355.238,76.332 355.042 C 76.589 354.883,76.800 354.954,76.800 355.200 C 76.800 355.446,76.960 355.549,77.155 355.428 C 77.350 355.308,77.603 355.567,77.717 356.004 C 77.847 356.503,78.263 356.800,78.829 356.800 C 79.326 356.800,79.615 356.918,79.470 357.063 C 79.057 357.476,79.997 358.376,80.599 358.145 C 80.899 358.030,81.442 358.397,81.816 358.969 C 82.188 359.536,82.741 360.000,83.046 360.000 C 83.351 360.000,83.600 360.292,83.600 360.649 C 83.600 361.204,83.701 361.221,84.300 360.762 C 84.685 360.467,84.868 360.383,84.707 360.573 C 84.545 360.764,84.869 361.343,85.427 361.860 C 86.544 362.895,87.001 363.072,86.564 362.300 C 86.408 362.025,86.892 362.410,87.640 363.155 C 89.513 365.021,90.682 365.731,91.418 365.449 C 91.776 365.311,91.938 365.377,91.797 365.605 C 91.663 365.822,91.754 366.000,92.000 366.000 C 92.246 366.000,92.348 366.161,92.226 366.358 C 91.943 366.816,93.135 367.287,93.698 366.939 C 93.942 366.789,94.007 366.865,93.851 367.118 C 93.523 367.647,95.038 368.547,95.635 368.178 C 95.865 368.036,96.155 368.308,96.279 368.782 C 96.420 369.319,96.720 369.563,97.073 369.427 C 97.388 369.307,97.532 369.386,97.397 369.605 C 97.261 369.825,97.595 370.000,98.152 370.000 C 98.701 370.000,99.733 370.532,100.444 371.181 C 101.155 371.831,101.870 372.280,102.032 372.180 C 102.469 371.910,103.627 372.432,103.402 372.797 C 103.120 373.253,104.292 374.114,104.782 373.811 C 105.012 373.669,105.200 373.743,105.200 373.976 C 105.200 374.209,105.571 374.400,106.024 374.400 C 106.477 374.400,106.744 374.567,106.618 374.771 C 106.313 375.264,107.708 375.687,108.560 375.360 C 108.930 375.218,109.204 375.259,109.169 375.451 C 109.001 376.373,109.271 376.740,110.011 376.598 C 110.457 376.512,110.716 376.612,110.587 376.821 C 110.458 377.029,110.723 377.200,111.176 377.200 C 111.629 377.200,112.000 377.374,112.000 377.587 C 112.000 377.801,112.300 377.860,112.666 377.719 C 113.150 377.534,113.242 377.609,113.003 377.995 C 112.761 378.387,112.884 378.471,113.475 378.317 C 113.995 378.181,114.445 378.380,114.762 378.887 C 115.043 379.337,115.501 379.570,115.845 379.438 C 116.182 379.309,116.335 379.381,116.197 379.605 C 115.989 379.941,117.114 380.203,118.100 380.047 C 118.265 380.021,118.355 380.225,118.300 380.500 C 118.244 380.779,118.509 380.948,118.900 380.882 C 119.285 380.818,119.600 380.966,119.600 381.212 C 119.600 381.458,119.913 381.598,120.295 381.525 C 120.678 381.451,121.308 381.708,121.695 382.095 C 122.083 382.483,122.921 382.800,123.557 382.800 C 124.211 382.800,124.813 383.058,124.942 383.393 C 125.079 383.750,125.431 383.886,125.825 383.735 C 126.186 383.597,126.598 383.648,126.740 383.850 C 127.105 384.364,129.306 385.295,129.005 384.808 C 128.863 384.578,129.020 384.510,129.377 384.646 C 129.717 384.777,129.906 385.029,129.796 385.207 C 129.686 385.385,130.053 385.480,130.613 385.418 C 131.270 385.346,131.767 385.565,132.021 386.039 C 132.246 386.459,132.665 386.673,133.006 386.542 C 133.333 386.417,133.600 386.533,133.600 386.801 C 133.600 387.121,134.078 387.232,135.000 387.124 C 135.909 387.018,136.400 387.128,136.400 387.438 C 136.400 387.700,136.679 388.022,137.021 388.153 C 137.442 388.314,137.546 388.232,137.344 387.895 C 137.147 387.567,137.275 387.585,137.723 387.949 C 138.095 388.251,138.400 388.350,138.400 388.169 C 138.400 387.988,138.616 388.056,138.880 388.320 C 139.144 388.584,139.684 388.800,140.080 388.800 C 140.476 388.800,140.800 388.974,140.800 389.187 C 140.800 389.401,141.070 389.471,141.400 389.345 C 141.730 389.218,142.000 389.304,142.000 389.535 C 142.000 389.774,142.690 389.918,143.600 389.867 C 144.480 389.817,145.200 389.928,145.200 390.112 C 145.200 390.296,145.361 390.348,145.558 390.226 C 145.755 390.104,146.021 390.278,146.149 390.612 C 146.315 391.043,146.704 391.149,147.491 390.977 C 148.357 390.788,148.468 390.831,148.000 391.173 C 147.530 391.515,147.718 391.592,148.863 391.526 C 149.668 391.479,150.611 391.677,150.958 391.965 C 151.306 392.254,151.871 392.381,152.216 392.249 C 152.560 392.117,152.738 392.177,152.611 392.382 C 152.476 392.600,153.242 392.699,154.460 392.619 C 156.195 392.506,156.654 392.625,157.228 393.334 C 157.816 394.060,158.367 394.191,160.993 394.225 C 163.182 394.254,164.171 394.430,164.420 394.833 C 164.682 395.256,165.815 395.415,168.885 395.458 C 173.896 395.530,173.622 395.492,173.500 396.100 C 173.434 396.431,173.861 396.579,174.764 396.537 C 175.701 396.494,175.951 396.586,175.564 396.832 C 175.222 397.048,177.254 397.145,180.728 397.078 C 183.878 397.017,186.539 397.102,186.641 397.266 C 186.742 397.430,187.119 397.452,187.478 397.315 C 187.912 397.148,188.035 397.220,187.845 397.527 C 187.658 397.830,187.774 397.908,188.179 397.753 C 188.521 397.622,188.800 397.714,188.800 397.957 C 188.800 398.201,189.115 398.397,189.500 398.394 C 190.105 398.389,190.119 398.329,189.600 397.956 C 189.119 397.610,189.159 397.582,189.800 397.814 C 191.456 398.412,192.408 398.475,193.586 398.065 C 194.254 397.832,194.800 397.767,194.800 397.921 C 194.800 398.074,197.770 398.200,201.400 398.200 C 205.030 398.200,208.000 398.059,208.000 397.886 C 208.000 397.713,208.348 397.758,208.774 397.986 C 209.662 398.461,211.740 398.550,211.462 398.100 C 211.360 397.935,211.737 397.772,212.300 397.738 C 213.037 397.694,213.166 397.776,212.761 398.032 C 212.302 398.323,212.319 398.389,212.857 398.394 C 213.219 398.397,213.633 398.090,213.779 397.711 C 214.002 397.130,214.099 397.113,214.400 397.600 C 214.707 398.097,214.790 398.091,214.994 397.560 C 215.196 397.032,216.137 396.959,221.433 397.060 C 225.800 397.144,227.555 397.051,227.367 396.746 C 227.189 396.459,227.394 396.408,227.979 396.593 C 228.574 396.782,229.120 396.635,229.670 396.137 C 230.333 395.536,231.060 395.417,233.641 395.484 C 235.378 395.529,236.800 395.413,236.800 395.227 C 236.800 395.041,237.115 394.914,237.500 394.944 C 237.885 394.975,238.168 394.814,238.129 394.587 C 238.084 394.328,239.028 394.218,240.656 394.292 C 242.122 394.359,243.157 394.253,243.031 394.050 C 242.909 393.853,243.167 393.597,243.604 393.483 C 244.042 393.369,244.400 393.449,244.400 393.661 C 244.400 393.873,244.583 393.934,244.807 393.796 C 245.030 393.658,245.109 393.377,244.983 393.172 C 244.746 392.788,245.378 392.699,248.296 392.707 C 249.229 392.709,249.894 392.553,249.775 392.360 C 249.656 392.167,249.824 392.111,250.148 392.235 C 250.472 392.360,251.157 392.235,251.669 391.958 C 252.181 391.680,253.377 391.419,254.328 391.376 C 255.508 391.324,256.223 391.059,256.586 390.541 C 256.968 389.996,257.543 389.802,258.625 389.853 C 260.111 389.923,261.429 389.185,260.881 388.590 C 260.726 388.422,261.185 388.396,261.900 388.533 C 262.724 388.689,263.200 388.620,263.200 388.343 C 263.200 388.093,263.568 388.003,264.065 388.133 C 264.991 388.375,266.543 387.755,266.239 387.264 C 266.139 387.101,266.673 387.039,267.428 387.127 C 268.241 387.222,268.800 387.112,268.800 386.856 C 268.800 386.619,269.041 386.518,269.336 386.631 C 269.631 386.744,270.103 386.558,270.385 386.218 C 270.667 385.878,271.394 385.600,272.000 385.600 C 272.606 385.600,273.326 385.330,273.600 385.000 C 273.874 384.670,274.526 384.400,275.049 384.400 C 275.572 384.400,276.000 384.239,276.000 384.043 C 276.000 383.846,276.279 383.578,276.621 383.447 C 277.040 383.286,277.148 383.370,276.952 383.705 C 276.793 383.977,277.023 383.885,277.463 383.500 C 277.903 383.115,278.654 382.800,279.131 382.800 C 279.609 382.800,280.345 382.455,280.767 382.033 C 281.188 381.612,281.631 381.364,281.749 381.483 C 281.868 381.602,282.245 381.592,282.587 381.460 C 282.929 381.329,283.269 381.262,283.343 381.311 C 283.417 381.360,283.802 381.130,284.199 380.801 C 284.597 380.471,285.479 380.012,286.161 379.781 C 286.842 379.550,287.357 379.151,287.305 378.895 C 287.251 378.632,287.469 378.528,287.805 378.657 C 288.132 378.783,288.400 378.676,288.400 378.419 C 288.400 378.163,288.561 378.052,288.757 378.174 C 289.319 378.521,292.780 376.678,293.030 375.899 C 293.195 375.384,293.513 375.263,294.227 375.443 C 294.842 375.597,295.200 375.515,295.200 375.220 C 295.200 374.963,295.381 374.865,295.603 375.002 C 295.824 375.139,296.113 374.970,296.245 374.628 C 296.376 374.285,296.634 374.097,296.817 374.211 C 297.001 374.324,297.336 374.098,297.563 373.708 C 297.889 373.149,297.984 373.126,298.013 373.600 C 298.035 373.957,298.196 373.838,298.410 373.307 C 298.644 372.724,298.985 372.496,299.390 372.651 C 300.072 372.913,301.308 372.098,300.995 371.592 C 300.887 371.417,301.187 371.376,301.662 371.500 C 302.215 371.645,302.431 371.573,302.262 371.300 C 302.096 371.032,302.295 370.952,302.799 371.084 C 303.521 371.273,303.788 370.918,303.661 369.941 C 303.643 369.799,304.009 369.782,304.476 369.904 C 305.052 370.054,305.234 369.978,305.042 369.668 C 304.866 369.384,304.967 369.289,305.304 369.419 C 305.605 369.534,306.178 369.266,306.579 368.824 C 306.979 368.381,307.467 368.118,307.663 368.239 C 307.859 368.360,307.970 368.240,307.910 367.972 C 307.849 367.704,308.385 367.325,309.100 367.131 C 309.815 366.936,310.400 366.614,310.400 366.416 C 310.400 366.217,310.719 365.953,311.109 365.829 C 311.498 365.705,312.398 365.073,313.109 364.425 C 313.819 363.776,314.400 363.446,314.400 363.693 C 314.400 363.939,314.715 363.833,315.100 363.458 C 316.432 362.160,317.724 361.200,318.161 361.184 C 318.403 361.175,319.230 360.611,320.000 359.931 C 320.770 359.251,321.130 358.843,320.800 359.024 C 320.284 359.307,320.277 359.259,320.745 358.681 C 321.045 358.311,321.478 358.124,321.706 358.266 C 321.934 358.407,322.319 358.254,322.561 357.926 C 322.802 357.599,323.403 357.116,323.896 356.853 C 324.389 356.591,324.749 356.156,324.696 355.888 C 324.643 355.620,324.835 355.448,325.121 355.507 C 325.783 355.643,326.855 354.599,326.481 354.183 C 326.326 354.012,326.429 354.004,326.708 354.165 C 327.031 354.351,327.931 353.717,329.174 352.427 C 330.403 351.152,331.207 350.583,331.334 350.898 C 331.486 351.275,331.545 351.265,331.568 350.858 C 331.586 350.559,332.052 349.960,332.604 349.526 C 333.156 349.091,333.488 348.543,333.342 348.306 C 333.191 348.061,333.263 347.992,333.511 348.145 C 333.749 348.292,334.060 348.227,334.200 348.000 C 334.340 347.773,334.623 347.691,334.828 347.817 C 335.032 347.944,335.200 347.767,335.200 347.424 C 335.200 347.081,335.352 346.800,335.539 346.800 C 336.092 346.800,337.809 345.145,337.690 344.727 C 337.630 344.514,337.722 344.428,337.895 344.535 C 338.431 344.866,339.704 343.691,339.378 343.165 C 339.204 342.883,339.243 342.779,339.470 342.919 C 339.686 343.053,340.445 342.631,341.156 341.981 C 341.867 341.332,342.348 340.800,342.225 340.800 C 342.101 340.800,342.315 340.469,342.700 340.063 C 343.085 339.658,343.566 339.418,343.768 339.529 C 343.970 339.640,344.022 339.434,343.882 339.070 C 343.743 338.707,343.757 338.429,343.914 338.452 C 344.661 338.564,345.226 338.366,345.037 338.060 C 344.922 337.873,345.265 337.486,345.800 337.200 C 346.335 336.914,346.690 336.545,346.589 336.382 C 346.487 336.218,346.685 335.976,347.028 335.845 C 347.376 335.711,347.524 335.401,347.364 335.141 C 347.184 334.851,347.251 334.784,347.541 334.964 C 347.801 335.124,348.111 334.975,348.246 334.625 C 348.378 334.281,348.691 333.983,348.943 333.962 C 349.592 333.909,352.533 330.486,352.533 329.784 C 352.533 329.463,352.619 329.285,352.723 329.390 C 352.827 329.494,353.416 329.003,354.031 328.298 C 354.647 327.593,355.062 326.928,354.953 326.820 C 354.845 326.712,354.573 326.888,354.348 327.212 C 353.991 327.726,353.959 327.724,354.095 327.200 C 354.181 326.870,354.648 326.421,355.131 326.203 C 355.615 325.984,355.921 325.570,355.810 325.282 C 355.700 324.994,355.792 324.872,356.016 325.010 C 356.499 325.308,358.383 323.625,358.393 322.887 C 358.397 322.606,358.670 322.271,359.000 322.145 C 359.330 322.018,359.600 321.596,359.600 321.206 C 359.600 320.817,359.915 320.251,360.300 319.949 C 360.910 319.471,360.949 319.479,360.600 320.019 C 360.380 320.359,360.523 320.285,360.917 319.853 C 361.312 319.421,361.535 318.808,361.413 318.490 C 361.257 318.083,361.383 317.985,361.840 318.160 C 362.332 318.349,362.425 318.242,362.223 317.717 C 362.077 317.336,362.076 317.143,362.221 317.288 C 362.631 317.697,364.035 316.199,364.104 315.278 C 364.138 314.826,364.300 314.538,364.463 314.639 C 364.875 314.893,365.692 313.273,365.395 312.792 C 365.262 312.576,365.504 312.400,365.934 312.400 C 366.785 312.400,367.361 311.404,366.937 310.664 C 366.791 310.409,366.819 310.333,366.999 310.497 C 367.510 310.959,368.339 310.052,368.131 309.257 C 368.028 308.865,368.261 308.287,368.649 307.972 C 369.265 307.472,369.309 307.475,369.000 308.000 C 368.694 308.519,368.739 308.525,369.328 308.047 C 369.704 307.742,369.963 307.259,369.905 306.973 C 369.847 306.687,369.948 306.486,370.128 306.526 C 370.634 306.640,371.279 305.251,370.960 304.735 C 370.772 304.431,370.855 304.387,371.206 304.604 C 371.590 304.841,371.666 304.749,371.482 304.270 C 371.343 303.907,371.409 303.652,371.628 303.705 C 372.103 303.818,374.444 299.778,374.103 299.436 C 373.973 299.306,374.077 299.200,374.333 299.200 C 374.590 299.200,374.800 298.919,374.800 298.576 C 374.800 298.206,374.988 298.069,375.263 298.239 C 375.580 298.435,375.655 298.253,375.500 297.662 C 375.376 297.187,375.417 296.887,375.592 296.995 C 376.052 297.279,376.916 296.111,376.611 295.618 C 376.469 295.388,376.538 295.200,376.764 295.200 C 376.990 295.200,377.071 294.930,376.945 294.600 C 376.797 294.215,376.953 294.000,377.381 294.000 C 377.747 294.000,377.936 293.820,377.800 293.600 C 377.664 293.380,377.738 293.200,377.964 293.200 C 378.190 293.200,378.278 292.948,378.160 292.640 C 378.042 292.333,378.141 291.960,378.379 291.813 C 378.618 291.665,378.691 291.332,378.542 291.072 C 378.394 290.813,378.412 290.726,378.583 290.881 C 379.015 291.270,380.111 290.103,379.795 289.592 C 379.654 289.364,379.958 288.826,380.469 288.397 C 381.264 287.730,381.313 287.558,380.800 287.214 C 380.289 286.872,380.307 286.811,380.924 286.806 C 381.339 286.803,381.533 286.616,381.380 286.368 C 381.233 286.130,381.488 285.673,381.947 285.352 C 382.549 284.930,382.742 284.435,382.641 283.568 C 382.564 282.908,382.588 282.454,382.693 282.560 C 383.035 282.901,383.906 281.820,383.707 281.302 C 383.601 281.026,383.714 280.800,383.957 280.800 C 384.201 280.800,384.400 280.566,384.400 280.280 C 384.400 279.994,384.625 279.534,384.900 279.258 C 385.175 278.982,385.400 278.106,385.400 277.312 C 385.400 276.435,385.618 275.795,385.956 275.682 C 386.326 275.558,386.406 275.667,386.194 276.010 C 385.979 276.357,386.035 276.426,386.365 276.221 C 386.634 276.055,386.758 275.667,386.640 275.360 C 386.522 275.052,386.619 274.800,386.855 274.800 C 387.092 274.800,387.186 274.541,387.065 274.226 C 386.944 273.910,387.195 273.206,387.623 272.661 C 388.052 272.117,388.299 271.402,388.173 271.073 C 388.047 270.744,388.271 270.093,388.672 269.625 C 389.072 269.157,389.416 268.645,389.435 268.487 C 389.454 268.329,389.609 267.882,389.780 267.494 C 389.950 267.106,390.004 266.459,389.899 266.057 C 389.782 265.611,390.015 265.133,390.493 264.835 C 390.993 264.523,391.205 264.063,391.077 263.571 C 390.953 263.097,391.036 262.899,391.293 263.057 C 391.572 263.230,391.620 262.832,391.437 261.858 C 391.212 260.659,391.281 260.400,391.825 260.400 C 392.248 260.400,392.403 260.184,392.255 259.800 C 392.129 259.470,392.199 259.200,392.413 259.200 C 392.626 259.200,392.800 258.717,392.800 258.126 C 392.800 257.536,393.179 256.269,393.643 255.312 C 394.125 254.316,394.388 253.198,394.258 252.700 C 394.121 252.178,394.293 251.540,394.686 251.105 C 395.047 250.706,395.367 249.848,395.397 249.197 C 395.427 248.547,395.576 247.891,395.726 247.740 C 396.158 247.309,396.046 245.524,395.605 245.797 C 395.378 245.937,395.311 245.777,395.446 245.423 C 395.577 245.083,395.845 244.904,396.043 245.026 C 396.606 245.374,397.208 243.325,397.068 241.544 C 396.986 240.516,397.213 239.418,397.690 238.528 C 398.156 237.658,398.243 237.246,397.920 237.441 C 397.503 237.691,397.498 237.633,397.890 237.147 C 398.278 236.668,398.278 236.430,397.890 236.012 C 397.540 235.633,397.535 235.559,397.874 235.749 C 398.424 236.058,398.913 233.426,398.721 231.200 C 398.644 230.307,398.767 229.831,399.060 229.887 C 399.313 229.934,399.617 229.574,399.736 229.087 C 400.123 227.492,399.961 170.377,399.570 170.619 C 399.366 170.744,399.192 170.792,399.181 170.724 C 399.171 170.656,399.061 169.430,398.937 168.000 C 398.813 166.570,398.576 165.254,398.411 165.075 C 398.246 164.897,398.193 164.042,398.293 163.175 C 398.406 162.191,398.310 161.600,398.037 161.600 C 397.797 161.600,397.600 161.319,397.600 160.976 C 397.600 160.633,397.445 160.449,397.255 160.566 C 397.065 160.683,396.972 159.695,397.049 158.370 C 397.125 157.045,397.055 156.042,396.894 156.142 C 396.732 156.242,396.570 155.936,396.533 155.462 C 396.453 154.434,396.026 152.437,395.706 151.600 C 395.580 151.270,395.515 150.692,395.561 150.316 C 395.667 149.449,394.864 147.913,394.441 148.174 C 394.266 148.283,394.191 147.686,394.275 146.848 C 394.450 145.099,393.798 143.030,393.191 143.406 C 392.965 143.545,392.806 143.511,392.837 143.330 C 393.077 141.952,392.739 139.590,392.338 139.838 C 392.066 140.006,391.984 139.949,392.139 139.698 C 392.485 139.139,392.018 137.942,391.564 138.222 C 391.370 138.342,391.327 137.864,391.468 137.158 C 391.660 136.202,391.600 135.953,391.236 136.178 C 390.936 136.363,390.775 136.271,390.821 135.940 C 390.964 134.893,390.796 134.356,390.400 134.600 C 389.962 134.871,389.883 134.465,389.990 132.500 C 390.029 131.785,389.867 131.200,389.629 131.200 C 389.391 131.200,388.983 130.401,388.722 129.424 C 388.461 128.447,388.120 127.726,387.965 127.821 C 387.810 127.917,387.577 127.717,387.446 127.377 C 387.291 126.973,387.370 126.858,387.674 127.046 C 387.929 127.203,387.851 126.922,387.499 126.420 C 387.148 125.919,386.956 125.259,387.073 124.954 C 387.190 124.649,387.086 124.400,386.843 124.400 C 386.599 124.400,386.445 124.175,386.500 123.900 C 386.555 123.625,386.381 123.443,386.114 123.495 C 385.834 123.550,385.725 123.339,385.857 122.995 C 385.983 122.668,385.865 122.400,385.596 122.400 C 385.298 122.400,385.191 122.076,385.324 121.570 C 385.454 121.073,385.262 120.462,384.845 120.045 C 384.463 119.663,384.221 119.136,384.308 118.875 C 384.395 118.614,384.289 118.400,384.071 118.400 C 383.853 118.400,383.772 118.029,383.890 117.576 C 384.047 116.978,383.881 116.694,383.283 116.538 C 382.713 116.389,382.509 116.071,382.619 115.503 C 382.778 114.676,381.684 112.400,381.126 112.400 C 380.961 112.400,380.922 112.149,381.039 111.842 C 381.157 111.534,380.919 111.039,380.510 110.742 C 380.101 110.444,379.737 109.750,379.701 109.200 C 379.665 108.650,379.299 107.926,378.887 107.592 C 378.476 107.258,378.212 106.763,378.303 106.492 C 378.393 106.221,378.272 106.000,378.033 106.000 C 377.795 106.000,377.645 105.775,377.700 105.500 C 377.755 105.225,377.562 105.049,377.270 105.110 C 376.975 105.171,376.860 105.027,377.010 104.783 C 377.159 104.543,376.947 104.075,376.540 103.744 C 376.133 103.412,376.048 103.269,376.352 103.426 C 376.721 103.617,376.837 103.528,376.702 103.156 C 376.591 102.850,376.298 102.645,376.050 102.700 C 375.615 102.797,375.442 102.309,375.563 101.330 C 375.595 101.072,375.258 100.606,374.813 100.294 C 374.369 99.983,374.124 99.609,374.269 99.464 C 374.414 99.319,374.329 99.200,374.079 99.200 C 373.829 99.200,373.718 98.957,373.833 98.659 C 373.948 98.358,373.574 97.813,372.989 97.429 C 372.358 97.016,372.026 96.509,372.160 96.161 C 372.293 95.814,371.734 94.952,370.768 94.015 C 369.880 93.154,369.209 92.178,369.277 91.847 C 369.345 91.516,369.095 91.010,368.722 90.722 C 368.349 90.435,367.989 89.930,367.922 89.600 C 367.855 89.270,367.456 88.684,367.036 88.297 C 366.616 87.911,366.389 87.478,366.532 87.334 C 366.923 86.944,365.974 85.969,365.493 86.266 C 365.242 86.421,365.197 86.328,365.381 86.031 C 365.683 85.543,364.279 83.855,363.892 84.241 C 363.786 84.348,363.589 84.147,363.454 83.796 C 363.294 83.380,363.368 83.257,363.666 83.441 C 363.957 83.621,364.014 83.546,363.821 83.235 C 363.655 82.966,363.276 82.839,362.980 82.952 C 362.630 83.087,362.520 82.952,362.667 82.569 C 362.934 81.875,360.864 78.713,360.350 79.031 C 360.158 79.150,360.000 78.983,360.000 78.660 C 360.000 77.604,355.522 72.212,355.043 72.691 C 354.909 72.824,354.800 72.633,354.800 72.267 C 354.800 71.900,354.530 71.600,354.200 71.600 C 353.870 71.600,353.645 71.375,353.700 71.100 C 353.755 70.825,353.575 70.645,353.300 70.700 C 353.025 70.755,352.845 70.644,352.900 70.453 C 352.955 70.262,352.632 69.767,352.181 69.353 C 351.731 68.939,351.641 68.757,351.981 68.950 C 352.722 69.369,350.839 67.620,349.758 66.885 C 349.341 66.602,349.225 66.478,349.500 66.609 C 350.390 67.033,350.030 66.134,349.000 65.361 C 348.450 64.948,347.997 64.428,347.993 64.205 C 347.984 63.668,346.207 62.000,345.644 62.000 C 345.400 62.000,345.200 61.741,345.200 61.424 C 345.200 61.107,344.992 60.719,344.738 60.562 C 344.452 60.385,344.385 60.452,344.562 60.738 C 344.719 60.992,344.742 61.200,344.614 61.200 C 344.485 61.200,344.207 60.745,343.996 60.189 C 343.785 59.633,343.204 59.015,342.706 58.815 C 342.208 58.614,341.963 58.439,342.162 58.425 C 342.629 58.393,338.477 54.400,337.976 54.400 C 337.769 54.400,337.600 54.111,337.600 53.757 C 337.600 53.341,337.382 53.198,336.979 53.353 C 336.638 53.484,336.464 53.421,336.592 53.213 C 336.720 53.005,336.329 52.512,335.722 52.118 C 335.116 51.723,333.721 50.545,332.622 49.500 C 331.524 48.455,330.310 47.600,329.925 47.600 C 329.476 47.600,329.305 47.391,329.449 47.017 C 329.598 46.628,329.328 46.347,328.639 46.174 C 328.071 46.031,327.688 45.780,327.790 45.616 C 327.891 45.452,327.080 44.739,325.987 44.030 C 324.894 43.322,324.000 42.556,324.000 42.329 C 324.000 42.101,323.690 42.033,323.312 42.178 C 322.934 42.324,322.743 42.324,322.888 42.179 C 323.323 41.744,321.713 40.283,321.169 40.619 C 320.838 40.824,320.779 40.758,320.988 40.419 C 321.219 40.046,321.072 39.987,320.425 40.192 C 319.720 40.416,319.573 40.326,319.674 39.735 C 319.759 39.239,319.572 39.018,319.100 39.056 C 318.715 39.086,318.400 38.895,318.400 38.631 C 318.400 38.367,317.834 37.732,317.143 37.221 C 316.451 36.710,316.015 36.541,316.173 36.846 C 316.330 37.151,316.201 37.085,315.886 36.700 C 315.570 36.315,315.101 36.000,314.843 36.000 C 314.586 36.000,314.267 35.720,314.136 35.377 C 314.004 35.034,313.641 34.852,313.328 34.972 C 313.015 35.093,312.865 35.018,312.996 34.807 C 313.126 34.596,312.777 34.309,312.219 34.169 C 311.644 34.025,311.319 33.731,311.468 33.489 C 311.633 33.223,311.482 33.160,311.066 33.319 C 310.700 33.460,310.400 33.401,310.400 33.187 C 310.400 32.974,310.130 32.800,309.800 32.800 C 309.470 32.800,309.245 32.620,309.300 32.399 C 309.396 32.016,308.571 31.426,306.400 30.324 C 305.850 30.045,305.256 29.588,305.080 29.308 C 304.904 29.029,304.437 28.800,304.041 28.800 C 303.646 28.800,302.912 28.444,302.410 28.008 C 301.908 27.573,301.326 27.322,301.116 27.452 C 300.907 27.581,300.470 27.307,300.145 26.843 C 299.820 26.380,299.368 26.000,299.140 26.000 C 298.913 26.000,298.269 25.640,297.709 25.200 C 297.150 24.760,296.376 24.400,295.989 24.400 C 295.602 24.400,295.174 24.110,295.038 23.755 C 294.881 23.345,294.499 23.185,293.995 23.317 C 293.558 23.432,293.200 23.368,293.200 23.175 C 293.200 22.983,292.923 22.932,292.584 23.062 C 292.191 23.212,292.010 23.098,292.084 22.749 C 292.148 22.447,291.975 22.245,291.700 22.300 C 291.425 22.355,291.200 22.230,291.200 22.023 C 291.200 21.816,290.840 21.715,290.400 21.800 C 289.911 21.894,289.600 21.739,289.600 21.401 C 289.600 21.096,289.392 20.719,289.138 20.562 C 288.827 20.369,288.784 20.459,289.007 20.838 C 289.189 21.147,288.953 21.063,288.484 20.651 C 288.002 20.229,287.349 20.011,286.985 20.150 C 286.272 20.424,285.074 19.474,285.519 18.989 C 285.674 18.820,285.395 18.782,284.900 18.903 C 284.405 19.025,284.000 18.940,284.000 18.714 C 284.000 18.486,283.698 18.547,283.323 18.851 C 282.863 19.224,282.743 19.240,282.947 18.900 C 283.378 18.182,282.800 17.357,282.356 18.057 C 282.093 18.473,282.011 18.425,282.006 17.853 C 282.001 17.274,281.776 17.149,281.000 17.298 C 280.450 17.403,280.000 17.323,280.000 17.121 C 280.000 16.918,279.816 16.867,279.590 17.006 C 279.365 17.145,279.230 17.021,279.290 16.730 C 279.355 16.417,279.080 16.228,278.618 16.269 C 278.189 16.307,277.335 15.981,276.721 15.544 C 276.108 15.107,275.396 14.879,275.141 15.037 C 274.852 15.215,274.784 15.149,274.962 14.862 C 275.119 14.608,275.057 14.400,274.824 14.400 C 274.591 14.400,274.397 14.625,274.394 14.900 C 274.390 15.233,274.258 15.200,274.000 14.800 C 273.787 14.470,273.609 14.366,273.606 14.570 C 273.603 14.773,273.163 14.529,272.630 14.028 C 272.096 13.526,271.466 13.236,271.230 13.382 C 270.993 13.528,270.800 13.436,270.800 13.177 C 270.800 12.904,270.465 12.794,270.000 12.916 C 269.560 13.031,269.200 12.984,269.200 12.811 C 269.200 12.336,267.109 11.597,266.200 11.751 C 265.760 11.825,264.886 11.457,264.257 10.933 C 263.353 10.179,262.788 10.019,261.547 10.169 C 260.684 10.273,260.067 10.215,260.176 10.039 C 260.468 9.566,258.552 8.656,257.840 8.929 C 257.502 9.059,257.119 8.993,256.989 8.783 C 256.859 8.572,256.238 8.400,255.610 8.400 C 254.981 8.400,254.397 8.192,254.313 7.938 C 254.228 7.684,253.221 7.435,252.076 7.384 C 250.930 7.333,249.753 7.093,249.459 6.849 C 249.166 6.606,248.812 6.521,248.673 6.660 C 248.533 6.800,248.190 6.733,247.910 6.512 C 247.356 6.074,246.823 5.976,244.433 5.870 C 243.572 5.831,242.897 5.620,242.933 5.400 C 242.970 5.180,242.685 5.053,242.300 5.118 C 241.915 5.182,241.600 5.072,241.600 4.872 C 241.600 4.672,240.243 4.509,238.584 4.509 C 236.142 4.509,235.468 4.372,235.042 3.790 C 234.728 3.361,234.255 3.170,233.871 3.318 C 233.516 3.454,233.118 3.392,232.987 3.179 C 232.854 2.964,231.088 2.839,228.979 2.897 C 226.151 2.974,225.158 2.868,225.006 2.472 C 224.877 2.135,224.497 2.042,223.952 2.215 C 223.429 2.381,223.195 2.332,223.345 2.089 C 223.506 1.829,215.882 1.693,201.147 1.693 C 187.228 1.693,178.912 1.835,179.252 2.065 M137.538 40.176 C 138.122 40.493,139.257 40.858,140.059 40.987 C 141.863 41.276,143.200 42.305,144.050 44.059 C 145.204 46.440,147.878 52.149,148.706 54.000 C 149.148 54.990,149.958 56.790,150.504 58.000 C 151.050 59.210,151.985 61.370,152.582 62.800 C 153.959 66.099,154.693 67.792,155.616 69.800 C 156.020 70.680,156.747 72.480,157.232 73.800 C 157.716 75.120,158.346 76.740,158.632 77.400 C 159.120 78.527,160.275 81.622,161.394 84.800 C 161.665 85.570,162.112 86.830,162.388 87.600 C 163.023 89.371,163.924 92.369,164.672 95.200 C 164.991 96.410,165.511 97.967,165.826 98.660 C 166.142 99.354,166.400 100.546,166.400 101.310 C 166.400 102.074,166.682 103.487,167.026 104.450 C 169.040 110.084,166.922 122.000,163.907 122.000 C 163.717 122.000,162.112 122.855,160.339 123.900 C 149.209 130.461,149.600 130.355,145.115 128.034 C 137.577 124.133,131.184 118.516,123.225 108.800 C 117.459 101.762,116.305 100.304,111.987 94.600 C 93.814 70.600,92.642 68.746,94.221 66.492 C 94.562 66.004,95.110 64.702,95.438 63.597 C 96.348 60.534,100.621 56.568,107.335 52.556 C 108.400 51.920,109.750 51.097,110.335 50.726 C 111.628 49.908,122.692 44.384,125.200 43.305 C 128.756 41.775,131.427 40.800,132.062 40.800 C 132.417 40.800,133.314 40.537,134.054 40.216 C 135.764 39.473,136.233 39.468,137.538 40.176 M185.058 120.924 C 190.170 126.502,182.265 134.434,176.735 129.275 C 173.794 126.532,174.605 121.156,178.200 119.562 C 180.179 118.685,183.635 119.371,185.058 120.924 M212.750 132.969 C 213.713 133.316,214.973 133.600,215.550 133.600 C 216.671 133.600,221.059 134.936,222.932 135.849 C 223.555 136.152,224.263 136.400,224.506 136.400 C 225.310 136.400,230.704 138.970,234.582 141.200 C 248.633 149.282,260.441 164.037,264.992 179.200 C 265.289 180.190,265.715 181.540,265.938 182.200 C 266.352 183.424,266.959 186.218,267.589 189.800 C 268.052 192.429,268.054 208.093,267.592 210.400 C 267.393 211.390,267.031 213.190,266.787 214.400 C 266.543 215.610,266.161 217.140,265.938 217.800 C 265.715 218.460,265.287 219.810,264.987 220.800 C 258.826 241.146,241.063 258.910,220.800 264.992 C 219.810 265.289,218.460 265.715,217.800 265.938 C 217.140 266.161,215.610 266.543,214.400 266.787 C 213.190 267.031,211.390 267.393,210.400 267.592 C 208.093 268.054,192.429 268.052,189.800 267.589 C 186.218 266.959,183.424 266.352,182.200 265.938 C 181.540 265.715,180.190 265.289,179.200 264.992 C 160.979 259.523,140.916 240.774,136.621 225.200 C 136.469 224.650,136.111 223.660,135.826 223.000 C 134.823 220.682,133.600 216.589,133.600 215.550 C 133.600 214.973,133.319 213.713,132.976 212.750 C 131.631 208.976,131.823 190.977,133.260 186.113 C 133.918 183.884,133.480 183.572,131.875 185.127 C 126.612 190.229,118.429 181.935,123.532 176.671 C 126.764 173.336,132.884 174.999,133.529 179.388 C 133.880 181.777,134.490 181.865,135.000 179.600 C 135.223 178.610,135.630 177.407,135.903 176.926 C 136.176 176.446,136.400 175.835,136.400 175.570 C 136.400 174.856,139.196 168.984,140.861 166.200 C 141.256 165.540,141.928 164.370,142.353 163.600 C 145.681 157.579,155.383 147.706,162.409 143.191 C 166.901 140.305,167.041 140.223,169.600 138.997 C 174.271 136.758,175.106 136.400,175.655 136.400 C 175.967 136.400,176.577 136.156,177.011 135.857 C 177.445 135.558,178.467 135.191,179.283 135.042 C 180.099 134.892,181.269 134.508,181.883 134.188 C 182.497 133.867,183.573 133.604,184.274 133.602 C 184.975 133.601,186.055 133.395,186.674 133.143 C 189.787 131.881,209.368 131.750,212.750 132.969 M257.870 140.884 C 263.186 146.200,255.184 154.397,249.601 149.353 C 246.747 146.775,247.548 141.038,250.967 139.566 C 252.949 138.713,256.349 139.362,257.870 140.884 M365.426 171.506 C 365.661 171.668,366.405 172.610,367.080 173.600 C 367.755 174.590,368.713 175.760,369.210 176.200 C 370.651 177.476,371.992 180.748,371.997 183.000 C 371.999 184.100,372.271 186.530,372.600 188.400 C 373.382 192.837,373.379 203.428,372.595 208.200 C 372.269 210.180,372.002 212.812,372.002 214.050 C 372.001 215.287,371.730 217.065,371.400 218.000 C 371.070 218.935,370.800 220.162,370.800 220.726 C 370.800 222.062,369.585 223.741,366.874 226.151 L 364.678 228.102 358.039 227.820 C 354.388 227.666,350.680 227.365,349.800 227.151 C 348.920 226.938,345.500 226.605,342.200 226.411 C 338.900 226.217,335.684 225.861,335.054 225.621 C 334.424 225.381,332.264 225.088,330.254 224.969 C 328.244 224.851,325.430 224.504,324.000 224.200 C 322.570 223.895,320.050 223.459,318.400 223.230 C 315.085 222.771,311.843 222.166,309.400 221.552 C 308.520 221.331,306.835 220.976,305.656 220.763 C 304.477 220.550,303.001 220.111,302.376 219.788 C 301.751 219.464,300.815 219.200,300.296 219.200 C 299.777 219.200,299.004 218.936,298.576 218.613 C 298.149 218.290,297.506 218.020,297.146 218.013 C 295.634 217.983,289.827 214.616,287.569 212.458 L 285.205 210.200 285.108 200.273 L 285.011 190.346 286.006 189.582 C 286.552 189.162,287.540 188.536,288.200 188.192 C 288.860 187.848,290.686 186.784,292.258 185.828 C 293.830 184.872,295.763 183.876,296.553 183.616 C 297.343 183.355,298.092 182.975,298.218 182.771 C 298.344 182.567,298.842 182.394,299.324 182.386 C 299.806 182.379,300.920 182.025,301.800 181.600 C 302.680 181.175,303.793 180.821,304.274 180.814 C 304.755 180.806,305.655 180.593,306.274 180.341 C 307.406 179.880,310.776 179.174,315.600 178.388 C 317.030 178.155,319.100 177.788,320.200 177.571 C 321.300 177.355,323.730 176.987,325.600 176.754 C 327.470 176.521,330.002 176.076,331.226 175.765 C 332.451 175.454,334.438 175.200,335.642 175.200 C 336.847 175.200,338.905 174.919,340.216 174.576 C 341.527 174.233,344.130 173.862,346.000 173.751 C 347.870 173.640,350.570 173.303,352.000 173.000 C 353.430 172.698,356.220 172.350,358.200 172.227 C 360.180 172.105,362.340 171.839,363.000 171.636 C 364.536 171.166,364.904 171.146,365.426 171.506 M276.449 213.928 C 279.619 215.257,280.444 220.943,277.843 223.543 C 275.620 225.766,271.424 225.748,269.369 223.506 C 264.970 218.705,270.381 211.384,276.449 213.928 M150.362 249.029 C 153.848 251.962,152.499 258.230,148.172 259.206 C 142.084 260.579,137.884 253.689,142.187 249.387 C 144.067 247.507,148.331 247.320,150.362 249.029 M225.013 269.387 C 228.069 272.442,226.569 278.313,222.500 279.224 C 216.259 280.620,212.116 273.283,216.785 269.100 C 218.781 267.312,223.089 267.462,225.013 269.387 M153.921 271.343 C 155.395 272.302,157.140 273.387,157.800 273.755 C 158.460 274.123,159.476 274.734,160.057 275.112 C 160.638 275.490,162.114 276.393,163.336 277.117 C 167.731 279.723,168.703 283.457,167.000 291.200 C 166.685 292.630,166.422 294.520,166.414 295.400 C 166.401 296.896,165.395 300.490,164.144 303.514 C 163.845 304.236,163.600 305.103,163.600 305.439 C 163.600 305.776,163.223 306.985,162.761 308.126 C 162.300 309.267,161.651 310.920,161.319 311.800 C 160.406 314.218,159.182 317.257,158.579 318.600 C 158.283 319.260,157.562 320.965,156.978 322.389 C 156.047 324.656,155.237 326.499,153.014 331.400 C 152.714 332.060,151.992 333.680,151.409 335.000 C 149.557 339.190,149.304 339.761,148.478 341.600 C 147.677 343.386,144.808 349.558,142.993 353.400 C 142.474 354.500,141.941 355.789,141.809 356.264 C 141.331 357.984,138.190 358.893,132.600 358.927 C 124.236 358.978,94.758 338.975,93.765 332.575 C 93.113 328.375,93.303 326.726,94.635 325.000 C 95.313 324.120,97.113 321.690,98.632 319.600 C 100.152 317.510,101.535 315.620,101.705 315.400 C 120.280 291.382,128.768 281.885,137.587 275.253 C 140.653 272.947,141.800 272.299,146.400 270.269 C 148.993 269.125,150.939 269.403,153.921 271.343 "
              fill="#996c12"
              fill-rule="evenodd" id="path1" stroke="none"></path>
        <path d="M196.400 142.054 C 192.838 142.355,185.746 143.462,185.195 143.803 C 184.981 143.936,183.949 144.284,182.903 144.577 C 165.651 149.415,149.573 165.456,144.594 182.800 C 144.310 183.790,143.904 185.050,143.692 185.600 C 143.480 186.150,143.181 187.680,143.027 189.000 C 142.873 190.320,142.565 192.099,142.343 192.954 C 140.964 198.271,142.762 213.930,145.432 219.860 C 145.745 220.554,146.000 221.218,146.000 221.337 C 146.000 224.110,154.494 236.919,159.454 241.626 C 164.829 246.727,176.005 253.971,178.540 253.997 C 178.726 253.998,179.446 254.269,180.140 254.597 C 185.097 256.947,197.755 258.799,203.865 258.068 C 212.334 257.056,221.393 254.806,223.397 253.218 C 223.619 253.042,224.237 252.763,224.772 252.599 C 236.748 248.918,251.059 231.940,256.127 215.400 C 259.202 205.368,258.461 188.292,254.597 180.140 C 254.269 179.446,254.000 178.733,254.000 178.554 C 254.000 175.295,244.992 162.386,238.986 157.039 C 233.823 152.442,223.523 146.000,221.337 146.000 C 221.218 146.000,220.554 145.744,219.860 145.431 C 214.886 143.187,203.085 141.488,196.400 142.054 M210.600 151.133 C 214.331 151.935,218.305 153.108,219.000 153.612 C 219.220 153.772,219.838 154.037,220.372 154.201 C 230.737 157.387,243.778 171.742,247.631 184.208 C 260.577 226.090,217.541 262.757,178.498 243.111 C 139.763 223.620,144.083 166.160,185.302 152.616 C 187.793 151.797,189.512 151.415,196.000 150.237 C 198.173 149.842,207.164 150.394,210.600 151.133 M370.967 198.000 C 370.967 202.290,371.026 204.045,371.098 201.900 C 371.170 199.755,371.170 196.245,371.098 194.100 C 371.026 191.955,370.967 193.710,370.967 198.000 M286.514 204.200 C 286.517 205.300,286.595 205.703,286.687 205.095 C 286.779 204.486,286.777 203.586,286.682 203.095 C 286.587 202.603,286.511 203.100,286.514 204.200 M366.400 223.800 C 365.428 224.790,364.723 225.600,364.833 225.600 C 364.943 225.600,365.828 224.790,366.800 223.800 C 367.772 222.810,368.477 222.000,368.367 222.000 C 368.257 222.000,367.372 222.810,366.400 223.800 M335.505 223.883 C 336.002 223.979,336.722 223.975,337.105 223.875 C 337.487 223.775,337.080 223.696,336.200 223.701 C 335.320 223.705,335.007 223.787,335.505 223.883 M352.700 225.482 C 353.195 225.578,354.005 225.578,354.500 225.482 C 354.995 225.387,354.590 225.309,353.600 225.309 C 352.610 225.309,352.205 225.387,352.700 225.482 M148.900 271.876 C 149.285 271.976,149.915 271.976,150.300 271.876 C 150.685 271.775,150.370 271.693,149.600 271.693 C 148.830 271.693,148.515 271.775,148.900 271.876 M165.309 283.600 C 165.309 284.590,165.387 284.995,165.482 284.500 C 165.578 284.005,165.578 283.195,165.482 282.700 C 165.387 282.205,165.309 282.610,165.309 283.600 M137.105 356.683 C 137.602 356.779,138.322 356.775,138.705 356.675 C 139.087 356.575,138.680 356.496,137.800 356.501 C 136.920 356.505,136.607 356.587,137.105 356.683 "
              fill="#a6a8b4"
              fill-rule="evenodd" id="path2" stroke="none"></path>
        <path d="M196.700 141.882 C 197.195 141.978,198.005 141.978,198.500 141.882 C 198.995 141.787,198.590 141.709,197.600 141.709 C 196.610 141.709,196.205 141.787,196.700 141.882 M200.505 141.887 C 201.114 141.979,202.014 141.977,202.505 141.882 C 202.997 141.787,202.500 141.711,201.400 141.714 C 200.300 141.717,199.897 141.795,200.505 141.887 M196.000 150.237 C 189.512 151.415,187.793 151.797,185.302 152.616 C 144.083 166.160,139.763 223.620,178.498 243.111 C 217.541 262.757,260.577 226.090,247.631 184.208 C 243.778 171.742,230.737 157.387,220.372 154.201 C 219.838 154.037,219.220 153.772,219.000 153.612 C 216.297 151.652,200.761 149.372,196.000 150.237 M237.600 155.800 C 238.346 156.570,239.047 157.200,239.157 157.200 C 239.267 157.200,238.746 156.570,238.000 155.800 C 237.254 155.030,236.553 154.400,236.443 154.400 C 236.333 154.400,236.854 155.030,237.600 155.800 M207.543 165.041 C 225.817 170.340,236.639 184.531,235.879 202.200 C 234.510 234.011,195.884 249.099,173.393 226.607 C 155.767 208.982,161.063 177.877,183.400 167.830 C 184.720 167.236,186.084 166.600,186.431 166.415 C 187.239 165.985,193.369 164.467,195.200 164.244 C 197.899 163.914,205.308 164.392,207.543 165.041 M258.093 196.000 C 258.093 196.770,258.175 197.085,258.276 196.700 C 258.376 196.315,258.376 195.685,258.276 195.300 C 258.175 194.915,258.093 195.230,258.093 196.000 M141.714 197.400 C 141.717 198.500,141.795 198.903,141.887 198.295 C 141.979 197.686,141.977 196.786,141.882 196.295 C 141.787 195.803,141.711 196.300,141.714 197.400 M141.714 202.600 C 141.717 203.700,141.795 204.103,141.887 203.495 C 141.979 202.886,141.977 201.986,141.882 201.495 C 141.787 201.003,141.711 201.500,141.714 202.600 M258.093 204.000 C 258.093 204.770,258.175 205.085,258.276 204.700 C 258.376 204.315,258.376 203.685,258.276 203.300 C 258.175 202.915,258.093 203.230,258.093 204.000 M241.200 241.000 C 240.228 241.990,239.523 242.800,239.633 242.800 C 239.743 242.800,240.628 241.990,241.600 241.000 C 242.572 240.010,243.277 239.200,243.167 239.200 C 243.057 239.200,242.172 240.010,241.200 241.000 "
              fill="#4b83e2"
              fill-rule="evenodd" id="path3" stroke="none"></path>
        <path d="M134.054 40.216 C 133.314 40.537,132.417 40.800,132.062 40.800 C 131.427 40.800,128.756 41.775,125.200 43.305 C 122.692 44.384,111.628 49.908,110.335 50.726 C 109.750 51.097,108.400 51.920,107.335 52.556 C 100.621 56.568,96.348 60.534,95.438 63.597 C 95.110 64.702,94.562 66.004,94.221 66.492 C 92.642 68.746,93.814 70.600,111.987 94.600 C 116.305 100.304,117.459 101.762,123.225 108.800 C 131.184 118.516,137.577 124.133,145.115 128.034 C 149.600 130.355,149.209 130.461,160.339 123.900 C 162.112 122.855,163.717 122.000,163.907 122.000 C 166.922 122.000,169.040 110.084,167.026 104.450 C 166.682 103.487,166.400 102.074,166.400 101.310 C 166.400 100.546,166.142 99.354,165.826 98.660 C 165.511 97.967,164.991 96.410,164.672 95.200 C 163.924 92.369,163.023 89.371,162.388 87.600 C 162.112 86.830,161.665 85.570,161.394 84.800 C 160.275 81.622,159.120 78.527,158.632 77.400 C 158.346 76.740,157.716 75.120,157.232 73.800 C 156.747 72.480,156.020 70.680,155.616 69.800 C 154.693 67.792,153.959 66.099,152.582 62.800 C 151.985 61.370,151.050 59.210,150.504 58.000 C 149.958 56.790,149.148 54.990,148.706 54.000 C 147.878 52.149,145.204 46.440,144.050 44.059 C 143.200 42.305,141.863 41.276,140.059 40.987 C 139.257 40.858,138.122 40.493,137.538 40.176 C 136.233 39.468,135.764 39.473,134.054 40.216 M139.697 42.868 C 141.006 43.345,142.171 44.020,142.286 44.368 C 142.401 44.715,143.086 46.260,143.808 47.800 C 146.465 53.464,147.580 55.961,150.775 63.400 C 152.570 67.580,154.276 71.540,154.565 72.200 C 155.595 74.553,156.753 77.436,157.616 79.800 C 158.098 81.120,158.741 82.791,159.046 83.514 C 159.351 84.236,159.600 85.019,159.600 85.253 C 159.600 85.487,159.849 86.246,160.153 86.940 C 160.843 88.512,162.931 95.358,164.380 100.800 C 166.764 109.751,165.617 120.800,162.305 120.800 C 162.115 120.800,159.168 122.420,155.756 124.400 C 148.599 128.554,149.398 128.352,146.478 126.750 C 133.883 119.843,124.333 109.140,96.684 70.943 L 95.195 68.886 96.397 66.206 C 97.059 64.732,97.600 63.300,97.600 63.024 C 97.600 60.079,116.751 48.316,128.600 43.985 C 129.920 43.502,131.540 42.870,132.200 42.579 C 134.011 41.782,137.040 41.899,139.697 42.868 M178.200 119.562 C 174.605 121.156,173.794 126.532,176.735 129.275 C 182.265 134.434,190.170 126.502,185.058 120.924 C 183.635 119.371,180.179 118.685,178.200 119.562 M184.144 121.321 C 187.771 124.742,185.644 130.000,180.633 130.000 C 178.633 130.000,178.396 129.892,177.001 128.348 C 172.685 123.572,179.462 116.906,184.144 121.321 M190.600 132.373 C 189.060 132.546,187.293 132.892,186.674 133.143 C 186.055 133.395,184.975 133.601,184.274 133.602 C 183.573 133.604,182.497 133.867,181.883 134.188 C 181.269 134.508,180.099 134.892,179.283 135.042 C 178.467 135.191,177.445 135.558,177.011 135.857 C 176.577 136.156,175.967 136.400,175.655 136.400 C 175.106 136.400,174.271 136.758,169.600 138.997 C 167.041 140.223,166.901 140.305,162.409 143.191 C 155.383 147.706,145.681 157.579,142.353 163.600 C 141.928 164.370,141.256 165.540,140.861 166.200 C 139.196 168.984,136.400 174.856,136.400 175.570 C 136.400 175.835,136.176 176.446,135.903 176.926 C 135.630 177.407,135.223 178.610,135.000 179.600 C 134.490 181.865,133.880 181.777,133.529 179.388 C 132.884 174.999,126.764 173.336,123.532 176.671 C 118.429 181.935,126.612 190.229,131.875 185.127 C 133.480 183.572,133.918 183.884,133.260 186.113 C 131.823 190.977,131.631 208.976,132.976 212.750 C 133.319 213.713,133.600 214.973,133.600 215.550 C 133.600 216.589,134.823 220.682,135.826 223.000 C 136.111 223.660,136.469 224.650,136.621 225.200 C 140.916 240.774,160.979 259.523,179.200 264.992 C 180.190 265.289,181.540 265.715,182.200 265.938 C 183.424 266.352,186.218 266.959,189.800 267.589 C 192.429 268.052,208.093 268.054,210.400 267.592 C 211.390 267.393,213.190 267.031,214.400 266.787 C 215.610 266.543,217.140 266.161,217.800 265.938 C 218.460 265.715,219.810 265.289,220.800 264.992 C 241.063 258.910,258.826 241.146,264.987 220.800 C 265.287 219.810,265.715 218.460,265.938 217.800 C 266.161 217.140,266.543 215.610,266.787 214.400 C 267.031 213.190,267.393 211.390,267.592 210.400 C 268.054 208.093,268.052 192.429,267.589 189.800 C 266.959 186.218,266.352 183.424,265.938 182.200 C 265.715 181.540,265.289 180.190,264.992 179.200 C 260.441 164.037,248.633 149.282,234.582 141.200 C 230.704 138.970,225.310 136.400,224.506 136.400 C 224.263 136.400,223.555 136.152,222.932 135.849 C 221.059 134.936,216.671 133.600,215.550 133.600 C 214.973 133.600,213.713 133.316,212.750 132.969 C 210.732 132.242,195.445 131.831,190.600 132.373 M212.062 133.774 C 260.894 143.410,283.440 198.763,254.935 239.030 C 230.816 273.101,182.079 277.071,152.175 247.400 C 133.207 228.580,127.290 197.626,138.069 173.600 C 139.519 170.369,141.680 166.214,142.246 165.569 C 142.551 165.221,142.800 164.814,142.800 164.664 C 142.800 163.713,149.175 155.666,152.689 152.181 C 163.147 141.811,175.236 135.877,191.600 133.080 C 195.361 132.437,207.346 132.844,212.062 133.774 M250.967 139.566 C 247.548 141.038,246.747 146.775,249.601 149.353 C 255.184 154.397,263.186 146.200,257.870 140.884 C 256.349 139.362,252.949 138.713,250.967 139.566 M257.057 141.325 C 261.062 144.995,257.447 151.398,252.190 149.946 C 250.394 149.450,248.775 147.579,248.524 145.710 C 247.888 140.967,253.513 138.077,257.057 141.325 M363.000 171.636 C 362.340 171.839,360.180 172.105,358.200 172.227 C 356.220 172.350,353.430 172.698,352.000 173.000 C 350.570 173.303,347.870 173.640,346.000 173.751 C 344.130 173.862,341.527 174.233,340.216 174.576 C 338.905 174.919,336.847 175.200,335.642 175.200 C 334.438 175.200,332.451 175.454,331.226 175.765 C 330.002 176.076,327.470 176.521,325.600 176.754 C 323.730 176.987,321.300 177.355,320.200 177.571 C 319.100 177.788,317.030 178.155,315.600 178.388 C 310.776 179.174,307.406 179.880,306.274 180.341 C 305.655 180.593,304.755 180.806,304.274 180.814 C 303.793 180.821,302.680 181.175,301.800 181.600 C 300.920 182.025,299.806 182.379,299.324 182.386 C 298.842 182.394,298.344 182.567,298.218 182.771 C 298.092 182.975,297.343 183.355,296.553 183.616 C 295.763 183.876,293.830 184.872,292.258 185.828 C 290.686 186.784,288.860 187.848,288.200 188.192 C 287.540 188.536,286.552 189.162,286.006 189.582 L 285.011 190.346 285.108 200.273 L 285.205 210.200 287.569 212.458 C 289.827 214.616,295.634 217.983,297.146 218.013 C 297.506 218.020,298.149 218.290,298.576 218.613 C 299.004 218.936,299.777 219.200,300.296 219.200 C 300.815 219.200,301.751 219.464,302.376 219.788 C 303.001 220.111,304.477 220.550,305.656 220.763 C 306.835 220.976,308.520 221.331,309.400 221.552 C 311.843 222.166,315.085 222.771,318.400 223.230 C 320.050 223.459,322.570 223.895,324.000 224.200 C 325.430 224.504,328.244 224.851,330.254 224.969 C 332.264 225.088,334.424 225.381,335.054 225.621 C 335.684 225.861,338.900 226.217,342.200 226.411 C 345.500 226.605,348.920 226.938,349.800 227.151 C 350.680 227.365,354.388 227.666,358.039 227.820 L 364.678 228.102 366.874 226.151 C 369.585 223.741,370.800 222.062,370.800 220.726 C 370.800 220.162,371.070 218.935,371.400 218.000 C 371.730 217.065,372.001 215.287,372.002 214.050 C 372.002 212.812,372.269 210.180,372.595 208.200 C 373.379 203.428,373.382 192.837,372.600 188.400 C 372.271 186.530,371.999 184.100,371.997 183.000 C 371.992 180.748,370.651 177.476,369.210 176.200 C 368.713 175.760,367.755 174.590,367.080 173.600 C 365.325 171.026,365.196 170.964,363.000 171.636 M364.774 173.700 C 364.997 173.975,366.129 175.370,367.289 176.800 C 370.146 180.320,370.686 182.871,371.018 194.400 C 371.512 211.549,369.967 220.888,366.042 224.475 L 363.832 226.495 361.616 226.230 C 360.397 226.084,355.980 225.710,351.800 225.399 C 347.620 225.087,342.850 224.651,341.200 224.430 C 339.550 224.208,336.490 223.846,334.400 223.626 C 327.157 222.861,323.388 222.355,320.800 221.798 C 319.370 221.491,317.300 221.133,316.200 221.003 C 312.811 220.602,303.068 218.283,300.886 217.357 C 300.164 217.051,299.316 216.800,299.002 216.800 C 296.863 216.800,289.230 212.187,287.565 209.888 L 286.400 208.280 286.400 199.932 L 286.400 191.584 289.100 189.846 C 293.225 187.192,297.504 185.016,300.600 183.999 C 302.140 183.493,304.030 182.857,304.800 182.585 C 306.223 182.084,308.678 181.544,313.000 180.783 C 314.320 180.550,316.570 180.107,318.000 179.799 C 319.430 179.490,321.680 179.123,323.000 178.982 C 324.320 178.842,326.383 178.474,327.584 178.164 C 328.785 177.854,330.675 177.597,331.784 177.594 C 332.893 177.591,334.880 177.339,336.200 177.034 C 337.520 176.729,340.130 176.356,342.000 176.206 C 343.870 176.056,346.416 175.678,347.658 175.367 C 348.899 175.055,350.803 174.800,351.887 174.800 C 352.972 174.800,355.466 174.536,357.430 174.214 C 362.610 173.364,362.931 173.314,363.684 173.254 C 364.061 173.225,364.551 173.425,364.774 173.700 M131.292 177.150 C 133.587 179.290,133.707 182.026,131.602 184.197 C 129.290 186.583,126.604 186.577,124.208 184.181 C 119.526 179.500,126.448 172.631,131.292 177.150 M269.601 215.047 C 267.304 217.122,267.194 221.132,269.369 223.506 C 272.925 227.386,279.300 224.789,279.300 219.460 C 279.300 213.949,273.658 211.381,269.601 215.047 M277.300 216.002 C 281.784 220.686,274.974 227.528,270.256 223.079 C 267.872 220.831,267.812 217.900,270.104 215.713 C 272.446 213.478,274.983 213.580,277.300 216.002 M142.187 249.387 C 139.064 252.510,140.660 258.429,144.836 259.209 C 150.005 260.175,153.358 256.644,152.014 251.651 C 150.972 247.783,145.136 246.438,142.187 249.387 M148.838 249.019 C 151.396 250.342,152.335 253.789,150.816 256.281 C 148.079 260.769,141.400 258.815,141.400 253.526 C 141.400 249.749,145.474 247.280,148.838 249.019 M216.785 269.100 C 214.521 271.128,214.376 275.758,216.509 277.891 C 218.642 280.024,223.272 279.879,225.300 277.615 C 227.088 275.619,226.938 271.311,225.013 269.387 C 223.089 267.462,218.781 267.312,216.785 269.100 M224.485 270.345 C 226.860 272.891,226.395 276.029,223.343 278.041 C 219.070 280.859,213.541 275.330,216.359 271.057 C 218.468 267.858,221.886 267.559,224.485 270.345 M146.400 270.269 C 141.800 272.299,140.653 272.947,137.587 275.253 C 128.768 281.885,120.280 291.382,101.705 315.400 C 101.535 315.620,100.152 317.510,98.632 319.600 C 97.113 321.690,95.313 324.120,94.635 325.000 C 93.303 326.726,93.113 328.375,93.765 332.575 C 94.758 338.975,124.236 358.978,132.600 358.927 C 138.190 358.893,141.331 357.984,141.809 356.264 C 141.941 355.789,142.474 354.500,142.993 353.400 C 144.808 349.558,147.677 343.386,148.478 341.600 C 149.304 339.761,149.557 339.190,151.409 335.000 C 151.992 333.680,152.714 332.060,153.014 331.400 C 155.237 326.499,156.047 324.656,156.978 322.389 C 157.562 320.965,158.283 319.260,158.579 318.600 C 159.182 317.257,160.406 314.218,161.319 311.800 C 161.651 310.920,162.300 309.267,162.761 308.126 C 163.223 306.985,163.600 305.776,163.600 305.439 C 163.600 305.103,163.845 304.236,164.144 303.514 C 165.395 300.490,166.401 296.896,166.414 295.400 C 166.422 294.520,166.685 292.630,167.000 291.200 C 168.703 283.457,167.731 279.723,163.336 277.117 C 162.114 276.393,160.638 275.490,160.057 275.112 C 159.476 274.734,158.460 274.123,157.800 273.755 C 157.140 273.387,155.395 272.302,153.921 271.343 C 150.939 269.403,148.993 269.125,146.400 270.269 M151.471 272.106 C 161.484 277.785,165.096 280.298,165.343 281.758 C 165.651 283.573,164.949 294.299,164.384 296.400 C 163.416 300.006,162.293 303.832,161.803 305.200 C 158.998 313.026,156.736 318.614,153.742 325.115 C 153.004 326.719,152.400 328.258,152.400 328.535 C 152.400 328.813,152.240 329.211,152.044 329.420 C 151.848 329.629,151.104 331.150,150.391 332.800 C 148.788 336.507,147.214 339.975,145.127 344.400 C 144.245 346.270,143.278 348.340,142.977 349.000 C 138.995 357.752,140.051 356.767,134.549 356.863 L 130.200 356.939 125.889 354.874 C 113.291 348.839,96.967 336.955,96.156 333.229 C 96.033 332.663,95.677 331.521,95.366 330.692 C 94.450 328.251,94.386 328.396,99.200 321.861 C 125.638 285.968,144.409 268.101,151.471 272.106 M67.688 347.413 C 68.286 348.043,68.847 348.477,68.935 348.379 C 69.023 348.280,68.533 347.765,67.847 347.234 L 66.600 346.269 67.688 347.413 M198.500 398.297 C 199.985 398.374,202.415 398.374,203.900 398.297 C 205.385 398.220,204.170 398.157,201.200 398.157 C 198.230 398.157,197.015 398.220,198.500 398.297 "
              fill="#b3994a"
              fill-rule="evenodd" id="path4" stroke="none"></path>
    </g>
</svg>