<svg height="400" id="svg" version="1.1" viewBox="0, 0, 400,400" width="400"
	 xmlns="http://www.w3.org/2000/svg" xmlns:xlink="http://www.w3.org/1999/xlink">
	<g id="svgg">
		<path d="M352.962 18.170 C 345.989 20.275,338.044 25.267,327.402 34.229 C 320.067 40.407,305.260 55.445,305.743 56.227 C 305.822 56.354,305.585 56.675,305.217 56.941 C 304.848 57.206,304.643 57.578,304.760 57.767 C 304.877 57.956,304.797 58.003,304.583 57.871 C 304.356 57.730,303.614 58.478,302.796 59.673 C 302.027 60.796,300.904 62.261,300.301 62.928 C 299.698 63.596,299.204 64.253,299.204 64.389 C 299.204 64.525,298.474 65.571,297.581 66.713 C 292.103 73.721,288.532 82.613,289.617 86.544 C 292.602 97.362,311.327 88.453,335.279 64.818 C 339.072 61.075,342.213 58.011,342.260 58.007 C 342.307 58.004,342.348 91.105,342.350 131.565 C 342.354 190.329,342.266 205.127,341.911 205.122 C 341.667 205.118,340.195 204.891,338.638 204.618 C 324.861 202.197,287.348 202.097,266.844 204.426 C 257.116 205.531,247.113 207.533,243.355 209.127 C 242.166 209.632,242.113 209.616,239.642 207.959 C 230.374 201.744,219.067 197.207,207.958 195.246 L 204.598 194.653 204.507 162.048 L 204.417 129.443 207.248 129.443 L 210.080 129.443 210.080 147.015 C 210.080 164.115,210.099 164.628,210.819 166.113 C 217.982 180.912,298.754 180.971,306.298 166.184 C 307.194 164.428,307.386 113.051,306.505 110.942 C 300.387 96.299,217.387 96.238,210.739 110.872 C 210.205 112.049,210.094 113.239,210.087 117.860 L 210.080 123.431 205.176 123.431 C 200.324 123.431,200.263 123.440,199.321 124.383 L 198.368 125.336 198.417 141.802 C 198.443 150.858,198.453 166.304,198.438 176.127 L 198.410 193.988 193.988 193.879 L 189.567 193.770 189.567 168.310 L 189.567 142.850 188.699 141.982 C 187.859 141.143,187.666 141.114,182.863 141.114 L 177.896 141.114 177.896 133.850 C 177.896 127.338,177.824 126.445,177.204 125.229 C 170.046 111.199,90.059 111.024,81.857 125.020 L 80.990 126.499 80.998 152.816 C 81.007 182.472,80.842 180.654,83.752 183.277 C 96.327 194.615,159.924 194.849,174.807 183.612 C 177.979 181.217,177.896 181.772,177.896 163.092 L 177.896 146.744 180.731 146.847 L 183.566 146.950 183.649 170.572 C 183.730 193.949,183.724 194.197,183.024 194.324 C 182.635 194.395,180.277 194.786,177.784 195.192 C 163.536 197.516,149.696 203.826,138.686 213.019 L 135.728 215.489 129.167 215.072 C 104.118 213.479,77.249 214.759,59.401 218.394 C 57.022 218.879,55.017 219.275,54.947 219.275 C 54.876 219.275,54.819 185.620,54.819 144.485 L 54.819 69.695 63.218 78.119 C 86.713 101.682,105.105 111.391,109.549 102.578 C 117.448 86.914,53.255 23.358,39.733 33.455 C 34.516 37.349,37.228 46.553,47.746 60.654 L 48.801 62.069 48.808 134.041 C 48.811 173.625,48.812 209.439,48.810 213.626 L 48.806 221.240 46.519 222.236 C 43.837 223.404,41.129 225.661,40.445 227.297 C 39.553 229.432,39.759 309.793,40.661 311.561 C 41.816 313.826,44.401 315.575,49.327 317.427 L 51.459 318.228 51.555 332.500 L 51.652 346.773 50.848 347.423 C 50.406 347.781,48.930 349.139,47.569 350.441 C 46.207 351.743,42.044 355.634,38.318 359.087 C 34.591 362.540,31.448 365.612,31.333 365.913 C 30.576 367.886,31.989 369.938,34.105 369.938 C 35.237 369.938,36.085 369.256,43.405 362.458 L 51.459 354.978 51.636 361.252 C 51.834 368.286,52.067 368.877,54.642 368.877 C 57.213 368.877,57.450 368.280,57.648 361.300 L 57.825 355.074 58.886 356.032 C 59.469 356.558,62.016 358.909,64.545 361.257 C 74.093 370.120,73.874 369.938,75.014 369.938 C 78.728 369.938,79.118 366.678,75.779 363.546 C 69.646 357.795,60.520 349.360,58.444 347.525 L 57.648 346.822 57.648 333.246 C 57.648 320.477,57.685 319.681,58.267 319.866 C 63.248 321.446,82.383 323.458,96.100 323.842 L 104.314 324.073 104.411 335.357 L 104.509 346.641 95.844 354.705 C 91.079 359.141,86.641 363.221,85.982 363.773 C 83.701 365.685,83.409 368.054,85.291 369.372 C 87.329 370.800,87.153 370.916,97.413 361.355 L 104.156 355.070 104.332 361.592 C 104.534 369.025,104.871 369.938,107.416 369.938 C 110.051 369.938,110.345 369.106,110.345 361.643 C 110.345 358.036,110.441 355.084,110.558 355.084 C 110.675 355.084,113.786 357.909,117.472 361.362 C 127.351 370.616,127.785 370.889,129.926 369.205 C 132.293 367.343,131.739 366.497,122.538 357.909 C 121.181 356.643,117.882 353.560,115.208 351.057 L 110.345 346.508 110.345 335.235 L 110.345 323.961 112.259 323.961 L 114.172 323.961 116.347 328.065 C 143.003 378.383,213.453 388.389,254.283 347.657 C 258.049 343.899,260.894 340.478,264.721 335.102 C 276.121 319.090,280.457 294.580,275.504 274.155 C 274.923 271.757,274.447 268.991,274.447 268.009 L 274.447 266.222 276.127 266.440 C 277.051 266.560,280.341 266.899,283.437 267.193 C 286.533 267.487,289.105 267.768,289.152 267.816 C 289.199 267.865,289.290 285.622,289.354 307.277 L 289.470 346.649 288.060 347.898 C 287.284 348.585,285.609 350.125,284.337 351.320 C 283.066 352.515,279.142 356.166,275.618 359.433 C 271.831 362.944,269.122 365.728,268.993 366.241 C 268.484 368.268,269.828 369.938,271.966 369.938 C 272.878 369.938,274.133 368.927,280.024 363.442 C 283.862 359.869,287.520 356.512,288.152 355.983 L 289.302 355.021 289.302 361.265 C 289.302 368.660,289.714 369.897,292.190 369.927 C 294.850 369.959,295.102 369.278,295.314 361.503 L 295.491 355.014 296.552 355.982 C 299.323 358.511,301.530 360.557,305.883 364.633 C 312.496 370.826,314.822 371.586,315.648 367.824 C 316.044 366.022,315.695 365.620,305.464 356.088 L 295.491 346.794 295.200 344.308 C 295.040 342.940,294.998 338.002,295.107 333.333 C 295.215 328.665,295.307 312.090,295.309 296.501 L 295.314 268.156 307.958 268.154 C 320.686 268.152,328.889 267.780,337.047 266.833 C 339.478 266.550,341.667 266.318,341.910 266.316 C 342.261 266.314,342.352 274.567,342.352 306.410 L 342.352 346.507 335.591 352.829 C 327.795 360.119,327.328 360.548,324.530 362.991 C 321.442 365.687,320.884 367.721,322.814 369.239 C 324.895 370.876,324.800 370.938,335.572 360.946 C 338.943 357.819,341.840 355.210,342.009 355.149 C 342.178 355.087,342.316 358.032,342.317 361.692 L 342.317 368.347 343.238 369.142 C 344.389 370.136,345.865 370.160,347.079 369.205 L 348.011 368.472 348.011 361.749 C 348.011 357.819,348.145 355.074,348.335 355.143 C 348.656 355.259,354.359 360.491,359.859 365.712 C 364.658 370.268,365.663 370.722,367.592 369.205 C 368.620 368.396,368.876 366.333,368.070 365.339 C 367.833 365.046,363.223 360.696,357.825 355.672 L 348.011 346.537 348.011 305.955 L 348.011 265.373 351.776 264.583 C 361.045 262.638,366.767 259.928,368.041 256.880 C 368.912 254.796,368.732 215.200,367.845 213.746 C 366.002 210.723,354.828 206.198,349.190 206.191 C 348.574 206.190,348.017 206.030,347.952 205.836 C 347.887 205.641,347.913 170.668,348.011 128.117 L 348.187 50.752 350.610 47.756 C 359.596 36.644,364.218 26.086,362.196 21.291 C 361.045 18.564,356.616 17.067,352.962 18.170 M356.852 24.525 C 356.852 30.530,345.459 46.426,330.829 60.831 C 321.487 70.029,321.306 70.193,316.406 73.852 C 306.318 81.385,299.466 85.234,296.145 85.234 C 293.264 85.234,299.979 71.957,307.413 62.953 C 307.975 62.272,309.089 60.920,309.888 59.947 C 317.786 50.337,333.951 35.655,343.340 29.561 C 350.988 24.599,356.852 22.413,356.852 24.525 M47.922 39.518 C 65.088 46.622,96.638 78.292,103.390 95.197 C 105.259 99.876,104.473 100.662,99.795 98.792 C 81.734 91.571,46.789 55.631,43.181 40.565 C 42.534 37.864,43.441 37.664,47.922 39.518 M268.517 106.108 C 282.840 106.903,295.699 109.411,299.815 112.213 C 301.319 113.236,301.314 113.248,298.939 114.507 C 284.153 122.341,231.454 122.255,217.949 114.375 C 216.143 113.322,216.097 113.024,217.595 112.105 C 224.929 107.607,247.536 104.945,268.517 106.108 M220.159 121.698 C 221.715 122.235,224.699 123.044,226.789 123.495 L 230.590 124.315 230.591 128.494 C 230.593 133.803,231.188 135.066,233.703 135.090 C 236.047 135.113,236.605 133.989,236.605 129.247 L 236.605 125.129 238.638 125.351 C 243.439 125.876,249.439 126.249,253.139 126.254 L 257.118 126.260 257.118 131.164 C 257.118 137.472,258.319 139.327,261.380 137.745 C 262.892 136.963,263.130 136.024,263.130 130.835 L 263.130 126.260 265.871 126.250 C 267.378 126.244,271.158 126.009,274.271 125.727 C 277.383 125.445,280.049 125.211,280.195 125.207 C 280.340 125.202,280.460 126.914,280.460 129.011 C 280.460 133.832,281.100 135.085,283.571 135.096 C 285.933 135.107,286.472 133.925,286.472 128.729 L 286.472 124.228 287.975 123.991 C 290.571 123.582,296.768 121.948,298.914 121.107 L 300.973 120.300 300.973 142.007 L 300.973 163.713 299.802 164.605 C 298.137 165.876,288.757 169.054,286.673 169.054 C 286.563 169.054,286.472 167.166,286.472 164.858 C 286.472 159.935,285.975 158.798,283.823 158.798 C 280.950 158.798,280.460 159.794,280.460 165.635 L 280.460 170.033 278.249 170.264 C 272.794 170.834,268.402 171.153,265.871 171.164 L 263.130 171.176 263.130 167.616 C 263.130 162.972,262.448 161.662,260.019 161.638 C 257.707 161.616,257.118 162.760,257.118 167.270 L 257.118 171.176 252.785 171.164 C 248.845 171.153,244.891 170.898,238.815 170.264 L 236.605 170.033 236.605 165.453 C 236.605 160.503,236.412 159.789,234.858 158.985 C 232.041 157.529,230.592 159.623,230.592 165.153 L 230.592 169.067 229.620 168.855 C 226.171 168.102,220.737 166.437,219.174 165.653 C 215.762 163.944,216.092 166.487,216.092 141.906 C 216.092 121.338,216.125 120.187,216.711 120.447 C 217.051 120.598,218.603 121.161,220.159 121.698 M148.541 121.455 C 157.985 122.573,165.208 124.195,169.243 126.104 C 172.093 127.453,172.223 127.799,170.298 128.927 C 156.565 136.975,104.422 137.074,88.755 129.081 C 86.743 128.055,86.970 127.469,89.923 126.067 C 99.606 121.469,129.076 119.150,148.541 121.455 M88.993 135.678 C 91.090 136.561,94.625 137.552,98.143 138.243 L 101.326 138.869 101.503 143.520 C 101.707 148.890,102.125 149.744,104.547 149.744 C 106.932 149.744,107.515 148.560,107.515 143.723 C 107.515 140.012,107.570 139.668,108.134 139.833 C 108.962 140.076,116.752 140.670,122.989 140.966 L 128.028 141.205 128.028 146.127 C 128.028 151.676,128.494 152.785,130.822 152.785 C 133.320 152.785,133.850 151.667,133.979 146.125 L 134.093 141.169 136.631 140.985 C 138.027 140.883,141.914 140.591,145.270 140.336 L 151.370 139.872 151.370 143.833 C 151.370 148.574,151.966 149.744,154.377 149.744 C 156.847 149.744,157.383 148.615,157.383 143.417 L 157.383 139.040 160.124 138.459 C 163.746 137.690,167.805 136.540,169.702 135.744 C 170.545 135.391,171.382 135.102,171.562 135.102 C 171.759 135.102,171.853 143.727,171.798 156.915 L 171.706 178.727 169.265 180.049 C 167.088 181.227,159.593 183.554,157.976 183.554 C 157.457 183.554,157.383 183.067,157.383 179.641 C 157.383 174.014,156.112 172.281,153.018 173.691 C 151.665 174.307,151.370 175.467,151.370 180.183 L 151.370 184.559 150.398 184.752 C 149.245 184.981,142.757 185.554,137.666 185.876 L 134.041 186.106 134.005 182.620 C 133.961 178.257,133.762 177.552,132.341 176.722 C 129.430 175.022,128.028 176.765,128.028 182.082 L 128.028 186.134 122.281 185.889 C 116.863 185.659,111.246 185.198,108.665 184.773 L 107.515 184.583 107.515 180.029 C 107.515 174.804,106.869 173.298,104.627 173.298 C 102.262 173.298,101.503 174.801,101.503 179.491 L 101.503 183.617 100.000 183.367 C 97.019 182.872,92.432 181.399,89.832 180.103 L 87.179 178.780 87.088 156.941 C 87.036 144.431,87.131 135.102,87.310 135.102 C 87.483 135.102,88.240 135.361,88.993 135.678 M201.956 200.366 C 229.925 203.810,253.175 220.898,263.435 245.549 C 265.037 249.398,264.954 249.831,263.130 247.136 C 237.228 208.863,178.691 199.918,140.407 228.384 C 133.076 233.834,120.955 246.489,120.955 248.692 C 120.955 248.852,120.803 248.983,120.618 248.983 C 120.432 248.983,120.967 247.322,121.806 245.291 C 134.307 215.041,167.958 196.180,201.956 200.366 M327.321 209.347 C 344.249 210.857,354.367 212.685,360.477 215.338 C 362.628 216.271,362.591 216.509,360.124 217.611 C 345.023 224.353,291.688 226.340,259.542 221.358 L 254.716 220.610 251.289 217.292 C 247.280 213.411,247.039 213.842,254.017 212.405 C 261.422 210.879,272.291 209.639,284.881 208.884 C 289.345 208.617,323.279 208.987,327.321 209.347 M202.484 218.031 C 267.015 226.036,294.490 299.203,249.713 343.805 C 201.597 391.733,115.467 360.466,113.627 294.402 C 112.341 248.219,154.403 212.066,202.484 218.031 M127.937 220.912 L 130.145 221.128 128.645 222.888 C 125.588 226.474,122.408 231.093,119.879 235.620 C 117.962 239.052,118.792 238.902,103.271 238.614 C 74.453 238.078,50.155 234.317,46.418 229.813 C 43.956 226.847,66.736 222.128,90.363 220.709 C 95.854 220.379,124.044 220.532,127.937 220.912 M362.865 238.550 C 362.865 256.000,363.114 254.576,359.800 256.050 C 346.943 261.769,309.043 263.994,279.222 260.781 C 276.304 260.467,273.891 260.190,273.858 260.167 C 273.826 260.143,273.373 258.214,272.851 255.880 C 270.915 247.217,266.731 237.245,262.279 230.682 C 260.167 227.569,260.056 227.345,260.743 227.588 C 260.986 227.673,264.129 228.059,267.728 228.444 C 299.375 231.829,342.954 229.839,359.005 224.275 C 360.641 223.708,362.179 223.226,362.423 223.204 C 362.770 223.174,362.865 226.457,362.865 238.550 M48.922 237.828 C 54.492 240.204,72.233 243.141,85.234 243.840 C 87.277 243.949,90.619 244.127,92.661 244.235 C 94.704 244.343,100.672 244.497,105.924 244.578 C 111.176 244.659,115.446 244.847,115.413 244.997 C 115.380 245.147,114.953 246.463,114.464 247.922 C 112.344 254.246,111.207 259.987,110.717 266.844 C 110.564 268.983,110.018 272.485,109.503 274.624 C 106.544 286.919,106.918 301.184,110.527 313.722 C 111.205 316.078,111.760 318.081,111.760 318.173 C 111.760 318.415,94.917 317.991,88.064 317.576 C 68.416 316.386,51.853 313.233,46.950 309.750 L 45.977 309.059 45.977 272.841 L 45.977 236.622 46.773 236.936 C 47.210 237.109,48.178 237.510,48.922 237.828 "
			  fill="#777"
			  fill-rule="evenodd" id="path0" stroke="none"></path>
			  <!--fill="#464e4e"-->
		<!--<path d="M0.000 200.000 L 0.000 400.000 200.000 400.000 L 400.000 400.000 400.000 200.000 L 400.000 0.000 200.000 0.000 L 0.000 0.000 0.000 200.000 M360.182 19.077 C 365.501 22.737,361.747 33.984,350.610 47.756 L 348.187 50.752 348.011 128.117 C 347.913 170.668,347.887 205.641,347.952 205.836 C 348.017 206.030,348.574 206.190,349.190 206.191 C 354.828 206.198,366.002 210.723,367.845 213.746 C 368.732 215.200,368.912 254.796,368.041 256.880 C 366.767 259.928,361.045 262.638,351.776 264.583 L 348.011 265.373 348.011 305.955 L 348.011 346.537 357.825 355.672 C 363.223 360.696,367.833 365.046,368.070 365.339 C 368.876 366.333,368.620 368.396,367.592 369.205 C 365.663 370.722,364.658 370.268,359.859 365.712 C 354.359 360.491,348.656 355.259,348.335 355.143 C 348.145 355.074,348.011 357.819,348.011 361.749 L 348.011 368.472 347.079 369.205 C 345.865 370.160,344.389 370.136,343.238 369.142 L 342.317 368.347 342.317 361.692 C 342.316 358.032,342.178 355.087,342.009 355.149 C 341.840 355.210,338.943 357.819,335.572 360.946 C 324.800 370.938,324.895 370.876,322.814 369.239 C 320.884 367.721,321.442 365.687,324.530 362.991 C 327.328 360.548,327.795 360.119,335.591 352.829 L 342.352 346.507 342.352 306.410 C 342.352 274.567,342.261 266.314,341.910 266.316 C 341.667 266.318,339.478 266.550,337.047 266.833 C 328.889 267.780,320.686 268.152,307.958 268.154 L 295.314 268.156 295.309 296.501 C 295.307 312.090,295.215 328.665,295.107 333.333 C 294.998 338.002,295.040 342.940,295.200 344.308 L 295.491 346.794 305.464 356.088 C 315.695 365.620,316.044 366.022,315.648 367.824 C 314.822 371.586,312.496 370.826,305.883 364.633 C 301.530 360.557,299.323 358.511,296.552 355.982 L 295.491 355.014 295.314 361.503 C 295.102 369.278,294.850 369.959,292.190 369.927 C 289.714 369.897,289.302 368.660,289.302 361.265 L 289.302 355.021 288.152 355.983 C 287.520 356.512,283.862 359.869,280.024 363.442 C 274.133 368.927,272.878 369.938,271.966 369.938 C 269.828 369.938,268.484 368.268,268.993 366.241 C 269.122 365.728,271.831 362.944,275.618 359.433 C 279.142 356.166,283.066 352.515,284.337 351.320 C 285.609 350.125,287.284 348.585,288.060 347.898 L 289.470 346.649 289.354 307.277 C 289.290 285.622,289.199 267.865,289.152 267.816 C 289.105 267.768,286.533 267.487,283.437 267.193 C 280.341 266.899,277.051 266.560,276.127 266.440 L 274.447 266.222 274.447 268.009 C 274.447 268.991,274.923 271.757,275.504 274.155 C 280.457 294.580,276.121 319.090,264.721 335.102 C 226.696 388.514,146.352 384.704,116.347 328.065 L 114.172 323.961 112.259 323.961 L 110.345 323.961 110.345 335.235 L 110.345 346.508 115.208 351.057 C 117.882 353.560,121.181 356.643,122.538 357.909 C 131.739 366.497,132.293 367.343,129.926 369.205 C 127.785 370.889,127.351 370.616,117.472 361.362 C 113.786 357.909,110.675 355.084,110.558 355.084 C 110.441 355.084,110.345 358.036,110.345 361.643 C 110.345 369.106,110.051 369.938,107.416 369.938 C 104.871 369.938,104.534 369.025,104.332 361.592 L 104.156 355.070 97.413 361.355 C 87.153 370.916,87.329 370.800,85.291 369.372 C 83.409 368.054,83.701 365.685,85.982 363.773 C 86.641 363.221,91.079 359.141,95.844 354.705 L 104.509 346.641 104.411 335.357 L 104.314 324.073 96.100 323.842 C 82.383 323.458,63.248 321.446,58.267 319.866 C 57.685 319.681,57.648 320.477,57.648 333.246 L 57.648 346.822 58.444 347.525 C 60.520 349.360,69.646 357.795,75.779 363.546 C 79.118 366.678,78.728 369.938,75.014 369.938 C 73.874 369.938,74.093 370.120,64.545 361.257 C 62.016 358.909,59.469 356.558,58.886 356.032 L 57.825 355.074 57.648 361.300 C 57.450 368.280,57.213 368.877,54.642 368.877 C 52.067 368.877,51.834 368.286,51.636 361.252 L 51.459 354.978 43.405 362.458 C 36.085 369.256,35.237 369.938,34.105 369.938 C 31.989 369.938,30.576 367.886,31.333 365.913 C 31.448 365.612,34.591 362.540,38.318 359.087 C 42.044 355.634,46.207 351.743,47.569 350.441 C 48.930 349.139,50.406 347.781,50.848 347.423 L 51.652 346.773 51.555 332.500 L 51.459 318.228 49.327 317.427 C 44.401 315.575,41.816 313.826,40.661 311.561 C 39.759 309.793,39.553 229.432,40.445 227.297 C 41.129 225.661,43.837 223.404,46.519 222.236 L 48.806 221.240 48.810 213.626 C 48.812 209.439,48.811 173.625,48.808 134.041 L 48.801 62.069 47.746 60.654 C 29.042 35.579,36.430 23.521,60.523 39.803 C 87.767 58.215,114.597 92.568,109.549 102.578 C 105.105 111.391,86.713 101.682,63.218 78.119 L 54.819 69.695 54.819 144.485 C 54.819 185.620,54.876 219.275,54.947 219.275 C 55.017 219.275,57.022 218.879,59.401 218.394 C 77.249 214.759,104.118 213.479,129.167 215.072 L 135.728 215.489 138.686 213.019 C 149.696 203.826,163.536 197.516,177.784 195.192 C 180.277 194.786,182.635 194.395,183.024 194.324 C 183.724 194.197,183.730 193.949,183.649 170.572 L 183.566 146.950 180.731 146.847 L 177.896 146.744 177.896 163.092 C 177.896 181.772,177.979 181.217,174.807 183.612 C 159.924 194.849,96.327 194.615,83.752 183.277 C 80.842 180.654,81.007 182.472,80.998 152.816 L 80.990 126.499 81.857 125.020 C 90.059 111.024,170.046 111.199,177.204 125.229 C 177.824 126.445,177.896 127.338,177.896 133.850 L 177.896 141.114 182.863 141.114 C 187.666 141.114,187.859 141.143,188.699 141.982 L 189.567 142.850 189.567 168.310 L 189.567 193.770 193.988 193.879 L 198.410 193.988 198.438 176.127 C 198.453 166.304,198.443 150.858,198.417 141.802 L 198.368 125.336 199.321 124.383 C 200.263 123.440,200.324 123.431,205.176 123.431 L 210.080 123.431 210.087 117.860 C 210.094 113.239,210.205 112.049,210.739 110.872 C 217.387 96.238,300.387 96.299,306.505 110.942 C 307.386 113.051,307.194 164.428,306.298 166.184 C 298.754 180.971,217.982 180.912,210.819 166.113 C 210.099 164.628,210.080 164.115,210.080 147.015 L 210.080 129.443 207.248 129.443 L 204.417 129.443 204.507 162.048 L 204.598 194.653 207.958 195.246 C 219.067 197.207,230.374 201.744,239.642 207.959 C 242.113 209.616,242.166 209.632,243.355 209.127 C 257.339 203.194,315.003 200.465,338.638 204.618 C 340.195 204.891,341.667 205.118,341.911 205.122 C 342.266 205.127,342.354 190.329,342.350 131.565 C 342.348 91.105,342.307 58.004,342.260 58.007 C 342.213 58.011,339.072 61.075,335.279 64.818 C 311.327 88.453,292.602 97.362,289.617 86.544 C 288.532 82.613,292.103 73.721,297.581 66.713 C 298.474 65.571,299.204 64.525,299.204 64.389 C 299.204 64.253,299.698 63.596,300.301 62.928 C 300.904 62.261,302.027 60.796,302.796 59.673 C 303.614 58.478,304.356 57.730,304.583 57.871 C 304.797 58.003,304.877 57.956,304.760 57.767 C 304.643 57.578,304.848 57.206,305.217 56.941 C 305.585 56.675,305.822 56.354,305.743 56.227 C 305.260 55.445,320.067 40.407,327.402 34.229 C 343.829 20.395,354.756 15.344,360.182 19.077 M353.492 24.193 C 348.808 25.684,341.360 30.443,333.035 37.264 C 326.311 42.774,314.445 54.402,309.888 59.947 C 309.089 60.920,307.975 62.272,307.413 62.953 C 303.752 67.387,297.670 77.079,296.372 80.548 C 294.540 85.444,295.003 86.011,299.461 84.333 C 304.937 82.274,317.443 73.867,322.978 68.524 C 342.964 49.234,352.869 36.933,356.192 27.274 C 357.440 23.647,356.953 23.092,353.492 24.193 M42.989 38.521 C 41.893 40.294,47.384 50.515,53.929 58.886 C 69.074 78.257,95.004 99.735,103.243 99.735 C 109.769 99.735,90.560 72.972,72.405 56.770 C 59.800 45.522,44.521 36.042,42.989 38.521 M244.562 106.317 C 231.714 107.412,221.765 109.548,217.595 112.105 C 216.097 113.024,216.143 113.322,217.949 114.375 C 231.454 122.255,284.153 122.341,298.939 114.507 C 301.314 113.248,301.319 113.236,299.815 112.213 C 292.924 107.522,265.166 104.560,244.562 106.317 M216.092 141.906 C 216.092 166.487,215.762 163.944,219.174 165.653 C 220.737 166.437,226.171 168.102,229.620 168.855 L 230.592 169.067 230.592 165.153 C 230.592 159.623,232.041 157.529,234.858 158.985 C 236.412 159.789,236.605 160.503,236.605 165.453 L 236.605 170.033 238.815 170.264 C 244.891 170.898,248.845 171.153,252.785 171.164 L 257.118 171.176 257.118 167.270 C 257.118 162.760,257.707 161.616,260.019 161.638 C 262.448 161.662,263.130 162.972,263.130 167.616 L 263.130 171.176 265.871 171.164 C 268.402 171.153,272.794 170.834,278.249 170.264 L 280.460 170.033 280.460 165.635 C 280.460 159.794,280.950 158.798,283.823 158.798 C 285.975 158.798,286.472 159.935,286.472 164.858 C 286.472 167.166,286.563 169.054,286.673 169.054 C 288.757 169.054,298.137 165.876,299.802 164.605 L 300.973 163.713 300.973 142.007 L 300.973 120.300 298.914 121.107 C 296.768 121.948,290.571 123.582,287.975 123.991 L 286.472 124.228 286.472 128.729 C 286.472 133.925,285.933 135.107,283.571 135.096 C 281.100 135.085,280.460 133.832,280.460 129.011 C 280.460 126.914,280.340 125.202,280.195 125.207 C 280.049 125.211,277.383 125.445,274.271 125.727 C 271.158 126.009,267.378 126.244,265.871 126.250 L 263.130 126.260 263.130 130.835 C 263.130 136.024,262.892 136.963,261.380 137.745 C 258.319 139.327,257.118 137.472,257.118 131.164 L 257.118 126.260 253.139 126.254 C 249.439 126.249,243.439 125.876,238.638 125.351 L 236.605 125.129 236.605 129.247 C 236.605 133.989,236.047 135.113,233.703 135.090 C 231.188 135.066,230.593 133.803,230.591 128.494 L 230.590 124.315 226.789 123.495 C 223.501 122.785,218.718 121.339,216.711 120.447 C 216.125 120.187,216.092 121.338,216.092 141.906 M113.528 121.156 C 100.213 122.408,87.356 125.685,87.356 127.827 C 87.356 132.828,126.582 136.837,148.941 134.121 C 161.721 132.569,172.987 129.254,171.514 127.479 C 167.512 122.657,135.127 119.125,113.528 121.156 M87.088 156.941 L 87.179 178.780 89.832 180.103 C 92.432 181.399,97.019 182.872,100.000 183.367 L 101.503 183.617 101.503 179.491 C 101.503 174.801,102.262 173.298,104.627 173.298 C 106.869 173.298,107.515 174.804,107.515 180.029 L 107.515 184.583 108.665 184.773 C 111.246 185.198,116.863 185.659,122.281 185.889 L 128.028 186.134 128.028 182.082 C 128.028 176.765,129.430 175.022,132.341 176.722 C 133.762 177.552,133.961 178.257,134.005 182.620 L 134.041 186.106 137.666 185.876 C 142.757 185.554,149.245 184.981,150.398 184.752 L 151.370 184.559 151.370 180.183 C 151.370 175.467,151.665 174.307,153.018 173.691 C 156.112 172.281,157.383 174.014,157.383 179.641 C 157.383 183.067,157.457 183.554,157.976 183.554 C 159.593 183.554,167.088 181.227,169.265 180.049 L 171.706 178.727 171.798 156.915 C 171.853 143.727,171.759 135.102,171.562 135.102 C 171.382 135.102,170.545 135.391,169.702 135.744 C 167.805 136.540,163.746 137.690,160.124 138.459 L 157.383 139.040 157.383 143.417 C 157.383 148.615,156.847 149.744,154.377 149.744 C 151.966 149.744,151.370 148.574,151.370 143.833 L 151.370 139.872 145.270 140.336 C 141.914 140.591,138.027 140.883,136.631 140.985 L 134.093 141.169 133.979 146.125 C 133.850 151.667,133.320 152.785,130.822 152.785 C 128.494 152.785,128.028 151.676,128.028 146.127 L 128.028 141.205 122.989 140.966 C 116.752 140.670,108.962 140.076,108.134 139.833 C 107.570 139.668,107.515 140.012,107.515 143.723 C 107.515 148.560,106.932 149.744,104.547 149.744 C 102.125 149.744,101.707 148.890,101.503 143.520 L 101.326 138.869 98.143 138.243 C 94.625 137.552,91.090 136.561,88.993 135.678 C 88.240 135.361,87.483 135.102,87.310 135.102 C 87.131 135.102,87.036 144.431,87.088 156.941 M183.926 200.229 C 156.439 203.099,131.880 220.915,121.806 245.291 C 120.967 247.322,120.432 248.983,120.618 248.983 C 120.803 248.983,120.955 248.852,120.955 248.692 C 120.955 246.489,133.076 233.834,140.407 228.384 C 178.691 199.918,237.228 208.863,263.130 247.136 C 264.954 249.831,265.037 249.398,263.435 245.549 C 250.804 215.200,218.251 196.645,183.926 200.229 M284.881 208.884 C 272.291 209.639,261.422 210.879,254.017 212.405 C 247.039 213.842,247.280 213.411,251.289 217.292 L 254.716 220.610 259.542 221.358 C 291.688 226.340,345.023 224.353,360.124 217.611 C 362.591 216.509,362.628 216.271,360.477 215.338 C 354.367 212.685,344.249 210.857,327.321 209.347 C 323.279 208.987,289.345 208.617,284.881 208.884 M182.060 218.048 C 145.543 223.028,117.846 249.865,113.848 284.145 C 108.723 328.088,145.359 366.765,192.219 366.881 C 240.158 367.000,276.978 327.752,271.087 282.814 C 265.730 241.945,224.860 212.213,182.060 218.048 M90.363 220.709 C 66.736 222.128,43.956 226.847,46.418 229.813 C 50.155 234.317,74.453 238.078,103.271 238.614 C 118.792 238.902,117.962 239.052,119.879 235.620 C 122.408 231.093,125.588 226.474,128.645 222.888 L 130.145 221.128 127.937 220.912 C 124.044 220.532,95.854 220.379,90.363 220.709 M359.005 224.275 C 342.954 229.839,299.375 231.829,267.728 228.444 C 264.129 228.059,260.986 227.673,260.743 227.588 C 260.056 227.345,260.167 227.569,262.279 230.682 C 266.731 237.245,270.915 247.217,272.851 255.880 C 273.373 258.214,273.826 260.143,273.858 260.167 C 273.891 260.190,276.304 260.467,279.222 260.781 C 311.809 264.292,355.776 261.023,362.187 254.612 C 363.041 253.758,363.271 223.129,362.423 223.204 C 362.179 223.226,360.641 223.708,359.005 224.275 M45.977 272.841 L 45.977 309.059 46.950 309.750 C 51.853 313.233,68.416 316.386,88.064 317.576 C 94.917 317.991,111.760 318.415,111.760 318.173 C 111.760 318.081,111.205 316.078,110.527 313.722 C 106.918 301.184,106.544 286.919,109.503 274.624 C 110.018 272.485,110.564 268.983,110.717 266.844 C 111.207 259.987,112.344 254.246,114.464 247.922 C 114.953 246.463,115.380 245.147,115.413 244.997 C 115.446 244.847,111.176 244.659,105.924 244.578 C 100.672 244.497,94.704 244.343,92.661 244.235 C 90.619 244.127,87.277 243.949,85.234 243.840 C 72.233 243.141,54.492 240.204,48.922 237.828 C 48.178 237.510,47.210 237.109,46.773 236.936 L 45.977 236.622 45.977 272.841 "
			  fill="#fbfbfb"
			  fill-rule="evenodd" id="path1" stroke="none"></path>-->
	</g>
</svg>